<?xml version="1.0" encoding="UTF-8"?><svg id="illustration" xmlns="http://www.w3.org/2000/svg" viewBox="0 0 2613.42 1313.44"><defs><style>.cls-1,.cls-2{opacity:.6;}.cls-3,.cls-4{fill:#3f4869;}.cls-5{fill:#323348;}.cls-5,.cls-6,.cls-7,.cls-8,.cls-9,.cls-4,.cls-10,.cls-11,.cls-12,.cls-13,.cls-14,.cls-15,.cls-16,.cls-17,.cls-18,.cls-19,.cls-20,.cls-21,.cls-22,.cls-23,.cls-24{fill-rule:evenodd;}.cls-25,.cls-8{fill:#e8f5ff;}.cls-26{fill:#b2afc8;}.cls-27{fill:#bbd7ff;}.cls-28{fill:#222742;}.cls-29,.cls-7,.cls-2{fill:#fff;}.cls-30{fill:#535481;}.cls-6{fill:#dbdee4;}.cls-31{fill:#a7cafc;}.cls-32{fill:#e5e5e5;}.cls-9{fill:#c8c8c8;}.cls-33{fill:#dcedff;}.cls-34{fill:#2e335b;}.cls-35{fill:#1a9cb8;}.cls-36{fill:#ff7384;}.cls-37{fill:#97c1f2;}.cls-38,.cls-20{fill:#d8d8d8;}.cls-39{fill:#353a5f;}.cls-40{fill:#2a304e;}.cls-10{fill:#535c80;}.cls-11{fill:#aaa;}.cls-41{fill:#3f4567;}.cls-42{fill:#6ecef5;}.cls-12{fill:#d5d5d5;}.cls-43{fill:#c6c7dd;}.cls-44{fill:#414268;}.cls-45{fill:#00d0ff;}.cls-13{fill:#bababa;}.cls-46{fill:#f1f0fa;}.cls-14{fill:#9993aa;}.cls-47{fill:#e6f4ff;}.cls-15{fill:#29334d;}.cls-16{fill:#ddd;}.cls-17{fill:#323b56;}.cls-18{fill:#f7f7f7;}.cls-19{fill:#3f3c44;}.cls-48{fill:#c6c6c6;}.cls-49{opacity:.5;}.cls-49,.cls-21,.cls-50{fill:#bedbff;}.cls-51{fill:#1a84b8;}.cls-52{fill:#40436b;}.cls-53{fill:#f0f7ff;}.cls-22{fill:#f8fcff;}.cls-23{fill:#292f47;}.cls-24{fill:#5b5679;}.cls-54{fill:#d1cde4;}</style></defs><polygon class="cls-29" points="463.98 339.46 470.04 342.96 473.51 340.96 467.44 337.46 463.98 339.46"/><polygon class="cls-29" points="450.99 331.96 457.05 335.46 460.52 333.46 454.45 329.96 450.99 331.96"/><polygon class="cls-29" points="476.97 346.96 483.03 350.46 486.5 348.46 480.43 344.96 476.97 346.96"/><polygon class="cls-29" points="489.96 354.46 496.02 357.96 499.49 355.96 493.42 352.46 489.96 354.46"/><path class="cls-29" d="M743.19,409.54c-2.27,0-4.55-.51-6.32-1.53-2.04-1.18-3.2-2.93-3.2-4.8,0-1.88,1.17-3.63,3.2-4.8,3.54-2.05,9.1-2.04,12.64,0,2.04,1.18,3.2,2.93,3.2,4.8s-1.17,3.63-3.2,4.8c-1.77,1.02-4.05,1.53-6.32,1.53ZM743.19,400.86c-1.59,0-3.17.33-4.32,1-.73.42-1.2.95-1.2,1.34s.47.92,1.2,1.34c2.3,1.33,6.34,1.33,8.64,0,.73-.42,1.2-.95,1.2-1.34s-.47-.92-1.2-1.34c-1.15-.66-2.74-1-4.32-1Z"/><path class="cls-29" d="M608.15,394.05c-2.27,0-4.55-.51-6.32-1.53-2.04-1.18-3.2-2.93-3.2-4.8s1.17-3.63,3.2-4.8c3.54-2.04,9.1-2.04,12.64,0,2.04,1.18,3.2,2.93,3.2,4.8,0,1.88-1.17,3.63-3.2,4.8h0c-1.77,1.02-4.05,1.53-6.32,1.53ZM608.15,385.37c-1.58,0-3.17.33-4.32,1-.73.42-1.2.95-1.2,1.34s.47.92,1.2,1.34c2.3,1.33,6.34,1.33,8.64,0,.73-.42,1.2-.95,1.2-1.34s-.47-.92-1.2-1.34c-1.15-.67-2.74-1-4.32-1Z"/><path class="cls-29" d="M689.51,433.78c-2.4,0-4.79-.62-6.93-1.87l-68.51-39.82,2.01-3.46,68.51,39.82c3.05,1.78,6.84,1.77,9.89-.02l40.62-24.52,2.07,3.42-40.64,24.53c-2.17,1.27-4.59,1.91-7.01,1.91Z"/><path class="cls-29" d="M748.84,401.05l-2.09-3.41,15.11-9.28c1.17-.69,1.84-1.87,1.84-3.18,0-1.31-.68-2.49-1.82-3.15l-162.45-94.42c-3.22-1.87-7.22-1.87-10.44.02l-69.19,41.13c-1.02.6-1.13,1.57-1.13,1.96,0,.39.11,1.36,1.13,1.95l84.43,49.07-2.01,3.46-84.43-49.07c-1.95-1.13-3.11-3.15-3.12-5.4,0-2.25,1.15-4.28,3.09-5.42l69.19-41.13c4.47-2.62,10.01-2.63,14.48-.04l162.45,94.42c2.38,1.38,3.8,3.85,3.81,6.6,0,2.75-1.41,5.23-3.78,6.62l-15.08,9.26Z"/><g class="cls-1"><path class="cls-29" d="M351.2,284.69l30.93-17.86c3.26-1.88,3.26-4.93,0-6.81h0c-1.74-1.01-4.15-1.47-6.61-1.39-3.94.13-7.96-.67-10.97-2.41-5.99-3.46-5.58-9.21,1.22-12.35,5.01-2.32,12.34-2.39,17.47-.17,4.1,1.78,6.01,4.46,5.77,7.1-.13,1.43.65,2.84,2.41,3.85h0c3.26,1.88,8.54,1.88,11.8,0l3.14-1.81,27.86-16.09,31.59,18.16c3.26,1.88,3.26,4.93,0,6.81h0c-1.76,1.01-4.2,1.47-6.68,1.39-4.56-.14-9.22.97-12.29,3.33-3.85,2.96-3.72,7.2.29,10.09,5.44,3.93,15.4,4.16,21.39.71,3.01-1.74,4.4-4.06,4.17-6.34-.14-1.42.67-2.81,2.4-3.81h0c3.26-1.88,8.54-1.88,11.8,0l31.45,18.24-83.01,48.02-31.52-18.29c-3.26-1.88-3.26-4.93,0-6.81h0c1.74-1.01,4.15-1.47,6.61-1.39,3.94.13,7.96-.67,10.97-2.41,5.99-3.46,5.58-9.21-1.22-12.35-5.01-2.32-12.34-2.39-17.47-.17-4.1,1.78-6.02,4.46-5.77,7.1.13,1.43-.65,2.84-2.41,3.85-3.26,1.88-8.54,1.88-11.8,0l-31.52-18.2Z"/></g><g class="cls-1"><path class="cls-29" d="M943.32,447.87c-1.11,0-2.25-.65-3.06-1.81l-23.19-33.02c-1.23-1.75-2.73-3.19-4.21-4.05l-62.73-36.29c-2.81-1.62-4.94-5.3-4.94-8.55v-76.76c0-1.33.57-2.43,1.58-3.01,1-.58,2.24-.53,3.39.14l92.95,53.73c1.69.98,2.97,3.19,2.97,5.14v101.5c0,1.38-.74,2.47-1.92,2.85-.27.08-.55.13-.83.13ZM849.19,288.58v75.56c0,1.81,1.37,4.19,2.94,5.09l62.73,36.29c2.01,1.16,3.9,2.96,5.48,5.21l21.73,30.94v-98.29c0-.54-.5-1.41-.97-1.68h0s-91.91-53.13-91.91-53.13Z"/><polygon class="cls-29" points="929.35 352.63 858.59 311.18 858.59 307.21 929.35 348.65 929.35 352.63"/><polygon class="cls-29" points="875.95 333.57 858.59 323.47 858.59 319.5 875.95 329.6 875.95 333.57"/><polygon class="cls-29" points="914.07 356.09 884.12 338.29 884.12 334.32 914.07 352.12 914.07 356.09"/><polygon class="cls-29" points="929.35 377.21 858.59 335.76 858.59 331.79 929.35 373.24 929.35 377.21"/><polygon class="cls-29" points="894.2 369.2 858.59 348.05 858.59 344.08 894.2 365.23 894.2 369.2"/><polygon class="cls-29" points="912.58 379.81 901.08 373.17 901.08 369.2 912.58 375.84 912.58 379.81"/><polygon class="cls-29" points="895.82 381.91 858.59 360.34 858.59 356.37 895.82 377.94 895.82 381.91"/></g><g class="cls-1"><path class="cls-29" d="M1024.66,337.86c-.75,0-1.54-.22-2.3-.66l-55.47-32.03c-.8-.46-1.55-.65-2.06-.51l-17.11,4.61c-.84.22-1.72.02-2.49-.57-.99-.76-1.64-2.03-1.64-3.23v-74.91c0-1.18.52-2.15,1.43-2.67.91-.52,2.01-.49,3.03.1l77.77,44.9c1.42.82,2.45,2.61,2.45,4.25v56.65c0,1.62-.67,2.93-1.85,3.61-.53.31-1.13.46-1.75.46ZM965.19,300.61c1.19,0,2.44.37,3.7,1.09l55.38,31.97v-56.54c0-.21-.27-.68-.45-.79l-76.22-44.01v72.81l16.2-4.36c.45-.12.92-.18,1.4-.18Z"/></g><polygon class="cls-2" points="916.81 234.18 911.23 220.07 905.66 227.74 909.66 230.05 909.66 297.57 912.81 299.39 912.81 231.86 916.81 234.18"/><polygon class="cls-2" points="998.96 367.5 993.38 353.39 987.8 361.06 991.81 363.37 991.81 464.56 994.96 466.37 994.96 365.18 998.96 367.5"/><path class="cls-29" d="M675.29,51.59h-4V18.46c0-2.63,1.03-4.73,2.84-5.77,1.8-1.04,4.14-.88,6.41.43l40.99,23.66v4.59s-42.99-24.79-42.99-24.79c-.99-.57-1.89-.73-2.41-.43-.52.3-.84,1.16-.84,2.3v33.13Z"/><path class="cls-29" d="M870.03,126.96l-6.06-3.5v-4l6.06,3.5v4ZM857.04,119.46l-6.06-3.5v-4l6.06,3.5v4ZM844.05,111.96l-6.06-3.5v-4l6.06,3.5v4ZM831.06,104.46l-6.06-3.5v-4l6.06,3.5v4ZM818.07,96.96l-6.06-3.5v-4l6.06,3.5v4ZM805.08,89.46l-6.06-3.5v-4l6.06,3.5v4ZM792.09,81.96l-6.06-3.5v-4l6.06,3.5v4ZM779.1,74.46l-6.06-3.5v-4l6.06,3.5v4ZM766.11,66.96l-6.06-3.5v-4l6.06,3.5v4ZM753.12,59.46l-6.06-3.5v-4l6.06,3.5v4ZM740.13,51.96l-6.06-3.5v-4l6.06,3.5v4Z"/><path class="cls-29" d="M913.45,206.69h-4v-50.91c0-3.13-2.38-7.25-5.09-8.81l-21.23-12.25.07-5.17,23.16,13.96c3.97,2.29,7.09,7.69,7.09,12.28v50.91Z"/><path class="cls-29" d="M675.69,67.57c-1,0-2.06-.26-3.11-.79-3.74-1.87-6.67-6.7-6.67-11,0-2.44.96-4.43,2.64-5.47,1.63-1.01,3.75-1,5.82.04,3.74,1.87,6.67,6.7,6.67,11,0,2.44-.96,4.43-2.64,5.47-.81.5-1.73.75-2.71.75ZM671.27,53.56c-.24,0-.45.05-.61.15-.47.29-.75,1.06-.75,2.07,0,2.81,2.04,6.21,4.46,7.42.8.4,1.5.48,1.93.21.47-.29.75-1.06.75-2.07,0-2.81-2.04-6.21-4.46-7.42-.49-.24-.94-.37-1.31-.37Z"/><polygon class="cls-29" points="513.21 353.46 516.67 355.46 522.73 351.96 519.27 349.96 513.21 353.46"/><polygon class="cls-29" points="532.26 342.46 526.2 345.96 529.66 347.96 535.72 344.46 532.26 342.46"/><polygon class="cls-29" points="500.22 360.96 503.68 362.96 509.74 359.46 506.28 357.46 500.22 360.96"/><path class="cls-29" d="M713.53,796.79c-3.67,0-7.2-.76-9.89-2.32l-151.83-88.47,2.01-3.46,151.83,88.46c4.59,2.65,13.02,2.26,18.41-.85l181.53-105.48,2.01,3.46-181.53,105.48c-3.63,2.1-8.19,3.17-12.54,3.17Z"/><path class="cls-29" d="M541.18,700.05l-32.65-19.26c-2.91-1.68-4.52-4.11-4.52-6.84,0-3.14,2.19-6.2,6-8.4l359.49-210.39c6.71-3.87,16.56-4.24,22.43-.85l195.1,113.68c2.92,1.68,4.53,4.12,4.53,6.85,0,3.14-2.19,6.2-6,8.4l-167.31,98.77-2.03-3.45,167.33-98.78c2.52-1.46,4.02-3.3,4.02-4.95s-1.38-2.72-2.53-3.39l-195.1-113.68c-4.59-2.65-13.02-2.26-18.41.85l-359.49,210.39c-2.51,1.45-4.01,3.3-4.01,4.94s1.38,2.72,2.53,3.39l32.67,19.27-2.03,3.45Z"/><polygon class="cls-29" points="951.21 738.46 954.67 740.46 960.73 736.96 957.27 734.96 951.21 738.46"/><polygon class="cls-29" points="970.26 727.46 964.2 730.96 967.66 732.96 973.72 729.46 970.26 727.46"/><polygon class="cls-29" points="925.23 753.46 928.69 755.46 934.75 751.96 931.29 749.96 925.23 753.46"/><polygon class="cls-29" points="938.22 745.96 941.68 747.96 947.74 744.46 944.28 742.46 938.22 745.96"/><polygon class="cls-29" points="912.24 760.96 915.7 762.96 921.76 759.46 918.3 757.46 912.24 760.96"/><polygon class="cls-29" points="899.25 768.46 902.71 770.46 908.77 766.96 905.31 764.96 899.25 768.46"/><rect class="cls-29" x="943.45" y="670.42" width="4" height="65.81" transform="translate(-143.84 1152.76) rotate(-59.07)"/><path class="cls-29" d="M977.3,730.91c-2.27,0-4.55-.51-6.32-1.53-2.04-1.18-3.2-2.93-3.2-4.8s1.17-3.63,3.2-4.8c3.54-2.04,9.1-2.04,12.64,0,2.04,1.18,3.2,2.93,3.2,4.8,0,1.88-1.17,3.63-3.2,4.8h0c-1.77,1.02-4.05,1.53-6.32,1.53ZM977.3,722.23c-1.58,0-3.17.33-4.32,1-.73.42-1.2.95-1.2,1.34s.47.92,1.2,1.34c2.3,1.33,6.34,1.33,8.64,0,.73-.42,1.2-.95,1.2-1.34s-.47-.92-1.2-1.34c-1.15-.67-2.74-1-4.32-1Z"/><path class="cls-29" d="M911.91,689.68c-2.27,0-4.55-.51-6.32-1.53-2.04-1.18-3.2-2.93-3.2-4.8,0-1.88,1.17-3.63,3.2-4.8,3.54-2.04,9.1-2.04,12.64,0,2.04,1.18,3.2,2.93,3.2,4.8s-1.17,3.63-3.2,4.8c-1.77,1.02-4.05,1.53-6.32,1.53ZM911.91,681.01c-1.58,0-3.17.33-4.32,1-.73.42-1.2.95-1.2,1.34s.47.92,1.2,1.34c2.3,1.33,6.34,1.33,8.64,0,.73-.42,1.2-.95,1.2-1.34s-.47-.92-1.2-1.34c-1.15-.67-2.74-1-4.32-1Z"/><path class="cls-29" d="M889.31,790.94c-6.99,4.03-18.31,4.03-25.3,0-6.99-4.03-6.99-10.57,0-14.61s18.31-4.03,25.3,0c6.99,4.03,6.99,10.57,0,14.61Z"/><rect class="cls-29" x="797.56" y="377.28" width="4" height="118.25" transform="translate(19.33 906.49) rotate(-59.7)"/><path class="cls-29" d="M876.66,804.22c-8.62,0-17.24-1.9-23.81-5.68-6.74-3.89-10.45-9.18-10.45-14.9,0-5.72,3.71-11.01,10.45-14.9,13.13-7.58,34.49-7.58,47.61,0,6.74,3.89,10.45,9.18,10.45,14.9s-3.71,11.01-10.45,14.9h0c-6.56,3.79-15.19,5.68-23.81,5.68ZM876.66,767c-7.9,0-15.79,1.74-21.81,5.21-5.45,3.14-8.45,7.21-8.45,11.43,0,4.23,3,8.29,8.45,11.44,12.02,6.94,31.59,6.94,43.61,0h0c5.45-3.14,8.45-7.21,8.45-11.43s-3-8.29-8.45-11.44c-6.01-3.47-13.91-5.21-21.81-5.21Z"/><polygon class="cls-29" points="801.61 435.95 804.75 437.77 713.5 490.88 710.35 489.06 801.61 435.95"/><polygon class="cls-29" points="706.1 493.34 721.11 491.11 709.95 484.67 706.1 493.34"/><path class="cls-29" d="M472.24,594.68l9.24,5.18,6.38-3.8.73.41-7.26,4.32-9.97-5.59.88-.52Z"/><path class="cls-29" d="M486.22,593.84c-2.24-1.25-1.85-3.13.41-4.47,2.25-1.34,5.49-1.62,7.73-.37s1.79,3.1-.46,4.44c-2.25,1.34-5.43,1.65-7.67.4ZM493.58,589.46c-1.82-1.02-4.48-.81-6.29.27-1.81,1.08-2.11,2.62-.28,3.64,1.82,1.02,4.4.76,6.21-.32,1.81-1.08,2.19-2.57.37-3.59Z"/><path class="cls-29" d="M493.4,585.49l1.29.68c-.45-.83.31-1.72,1.33-2.32.58-.36,1.31-.63,2.13-.79l.21.53c-.65.12-1.22.35-1.69.63-1.48.89-1.57,2.17-.29,2.89l4.1,2.3-.79.47-7.04-3.94.74-.44Z"/><path class="cls-29" d="M502.08,584.4c-2.11-1.18-1.82-3.11.43-4.45s5.47-1.85,7.91-.13l-7.21,4.29c1.82.83,4.21.51,5.86-.48,1.05-.63,1.91-1.57,1.82-2.31l.97-.11c.12.97-.82,2.05-2.1,2.81-2.25,1.34-5.45,1.64-7.68.39ZM509.1,579.89c-1.75-.96-4.02-.74-5.95.41-1.65.98-2.1,2.38-.55,3.45l6.5-3.86Z"/><path class="cls-29" d="M527.37,573.42l-4.22-2.36c-1.35-.76-3.34-.68-4.87.23-1.52.91-1.58,2.09-.23,2.85l4.17,2.34-.79.47-4.17-2.34c-1.35-.76-3.39-.68-4.91.22-1.52.91-1.58,2.07-.22,2.83l4.17,2.34-.79.47-7.04-3.94.74-.44,1.19.65c-.38-.85.26-1.67,1.3-2.29,1.21-.72,2.98-1.21,4.7-.79-.67-.94,0-2,1.23-2.74,1.96-1.17,4.57-1.32,6.32-.33l4.22,2.36-.79.47Z"/><path class="cls-29" d="M529.5,561.38c.74.41-.54,1.18-1.28.76-.74-.42.54-1.18,1.28-.76ZM530.71,563.28l7.07,3.96.79-.47-7.07-3.96-.79.47Z"/><path class="cls-29" d="M543.77,567.06l-9.97-5.59.78-.46,1.67.93c-.44-.97.15-2.13,1.7-3.05,2.24-1.25,5.24-1.55,7.51-.28,2.36,1.32,1.83,3.12-.42,4.46-1.36.81-3.21,1.23-5.06.98l4.56,2.55-.76.45ZM544.66,559.08c-1.98-1.11-4.41-.79-6.22.29-1.86,1.11-2,2.62-.28,3.59,1.72.97,4.37.82,6.2-.27,1.81-1.08,2.28-2.5.3-3.61Z"/><path class="cls-29" d="M550.66,552.93c-1.44.13-2.34.54-3.24,1.07-1.26.73-2.05,1.68-1.12,2.16.97.51,2.55-.22,3.71-.73,1.64-.73,3.81-1.77,5.37-.81,1.5.9.09,2.22-1.32,3.06s-3.27,1.4-4.91,1.29l.13-.6c1.51.08,3.06-.44,4.13-1.07.97-.58,2.22-1.58,1.16-2.23-.98-.59-2.51.09-4,.77-1.78.8-3.58,1.57-5.01.79-1.4-.77-.42-2.03,1.21-2.99,1.17-.69,2.47-1.14,3.92-1.25l-.03.54Z"/><path class="cls-29" d="M565.45,550.78l-1.27-.71c.35.91-.37,1.8-1.47,2.47-2.14,1.27-4.77,1.5-6.72.41l-4.06-2.28.79-.47,4.05,2.27c1.6.89,3.57.71,5.29-.33,1.64-.99,1.69-2.29.24-3.1l-3.92-2.2.79-.47,7.05,3.95-.78.46Z"/><path class="cls-29" d="M580.18,542.03l-4.22-2.36c-1.35-.76-3.34-.68-4.87.23-1.52.91-1.58,2.09-.23,2.85l4.17,2.34-.79.47-4.17-2.34c-1.35-.76-3.39-.68-4.91.22-1.52.91-1.58,2.07-.22,2.83l4.17,2.34-.79.47-7.04-3.94.75-.44,1.18.65c-.38-.85.26-1.67,1.3-2.29,1.22-.72,2.98-1.21,4.7-.79-.67-.94,0-2,1.23-2.74,1.96-1.17,4.56-1.32,6.32-.33l4.22,2.36-.79.47Z"/><path class="cls-29" d="M503.86,606.01c-.1.88-.81,1.7-1.86,2.32-2.25,1.34-5.48,1.68-7.7.43-2.22-1.25-1.79-3.08.53-4.46,1.05-.63,2.46-1.05,3.97-1.14l-.08.56c-1.22.07-2.38.44-3.24.95-1.81,1.08-2.3,2.57-.4,3.63,1.89,1.06,4.46.74,6.27-.34.86-.51,1.43-1.2,1.51-1.9l1.01-.05Z"/><path class="cls-29" d="M502.75,603.75c-2.24-1.25-1.85-3.13.41-4.47,2.25-1.34,5.49-1.62,7.73-.37s1.79,3.1-.46,4.44c-2.25,1.34-5.43,1.65-7.67.4ZM510.1,599.38c-1.82-1.02-4.48-.81-6.3.27-1.81,1.08-2.11,2.62-.28,3.64,1.82,1.02,4.39.76,6.21-.32,1.81-1.08,2.19-2.57.37-3.59Z"/><path class="cls-29" d="M509.96,595.39l1.25.7c-.35-.91.37-1.8,1.47-2.47,2.14-1.27,4.77-1.5,6.72-.41l4.06,2.28-.79.47-4.05-2.27c-1.6-.89-3.57-.71-5.29.33-1.64.99-1.69,2.29-.24,3.1l3.92,2.2-.79.47-7.04-3.94.78-.46Z"/><path class="cls-29" d="M525.28,587.76c-1.44.13-2.34.54-3.24,1.07-1.26.73-2.05,1.68-1.12,2.16.97.51,2.55-.22,3.71-.73,1.64-.73,3.81-1.77,5.37-.81,1.5.9.09,2.22-1.32,3.06s-3.27,1.4-4.91,1.29l.13-.6c1.51.08,3.06-.44,4.13-1.07.97-.58,2.22-1.58,1.16-2.23-.98-.59-2.51.09-4,.77-1.78.8-3.58,1.57-5.01.79-1.4-.76-.42-2.03,1.21-2.99,1.17-.69,2.47-1.14,3.92-1.25l-.03.54Z"/><path class="cls-29" d="M529.65,587.74c-2.11-1.18-1.82-3.11.43-4.45,2.25-1.34,5.47-1.85,7.91-.13l-7.21,4.29c1.81.83,4.21.51,5.86-.48,1.05-.63,1.91-1.57,1.82-2.31l.97-.11c.12.97-.82,2.05-2.1,2.81-2.25,1.34-5.45,1.64-7.68.39ZM536.67,583.24c-1.75-.96-4.02-.74-5.95.41-1.65.98-2.1,2.38-.55,3.45l6.5-3.86Z"/><path class="cls-29" d="M548.83,579.27c-.1.88-.81,1.7-1.86,2.32-2.25,1.34-5.48,1.68-7.7.43-2.22-1.25-1.79-3.08.53-4.46,1.05-.63,2.46-1.05,3.97-1.14l-.08.56c-1.22.07-2.38.44-3.24.95-1.81,1.08-2.3,2.57-.4,3.63,1.89,1.06,4.46.74,6.27-.34.86-.51,1.43-1.2,1.51-1.9l1.01-.05Z"/><path class="cls-29" d="M544.11,572.64l2.12,1.19,2.72-1.62.58.33-2.72,1.62,4.29,2.4c.95.53,1.85.78,3.1.03.39-.23.71-.55.95-.89l.84.16c-.29.42-.65.8-1.15,1.09-1.7,1.01-3.14.84-4.52.07l-4.29-2.4-1.7,1.01-.58-.33,1.7-1.01-2.05-1.15.71-.5Z"/><path class="cls-29" d="M553.85,573.36c-2.11-1.18-1.82-3.11.43-4.45,2.25-1.34,5.47-1.85,7.91-.13l-7.21,4.29c1.81.83,4.21.51,5.86-.48,1.05-.63,1.91-1.57,1.82-2.31l.97-.11c.12.97-.82,2.05-2.1,2.81-2.25,1.34-5.45,1.64-7.69.39ZM560.87,568.86c-1.75-.96-4.02-.74-5.95.41-1.65.98-2.1,2.38-.55,3.45l6.5-3.86Z"/><path class="cls-29" d="M559.78,563.32l2.12,1.19,2.72-1.62.58.33-2.72,1.62,4.29,2.4c.95.54,1.85.78,3.1.03.39-.23.71-.55.95-.89l.84.16c-.29.42-.65.8-1.15,1.09-1.7,1.01-3.14.84-4.52.07l-4.29-2.4-1.7,1.01-.58-.33,1.7-1.01-2.05-1.15.71-.5Z"/><path class="cls-29" d="M579.94,561.91l-1.27-.71c.35.91-.37,1.8-1.47,2.47-2.14,1.27-4.77,1.5-6.72.41l-4.06-2.28.79-.47,4.05,2.27c1.6.89,3.57.71,5.29-.33,1.64-.99,1.69-2.29.24-3.1l-3.92-2.2.79-.47,7.05,3.95-.78.46Z"/><path class="cls-29" d="M578.84,558.5c-2.11-1.18-1.82-3.12.43-4.45,2.25-1.34,5.47-1.85,7.91-.13l-7.21,4.29c1.81.83,4.21.51,5.86-.48,1.05-.63,1.91-1.57,1.82-2.31l.97-.11c.12.97-.82,2.05-2.1,2.81-2.25,1.34-5.45,1.64-7.68.39ZM585.86,554c-1.75-.96-4.02-.74-5.95.41-1.65.98-2.09,2.38-.55,3.45l6.5-3.86Z"/><path class="cls-29" d="M586.14,550.1l1.29.68c-.45-.83.31-1.72,1.33-2.32.59-.36,1.31-.63,2.13-.79l.21.53c-.65.12-1.22.35-1.69.63-1.48.89-1.57,2.17-.29,2.89l4.1,2.3-.79.47-7.04-3.94.75-.44Z"/><path class="cls-29" d="M515.11,613.55c-1.44.13-2.34.54-3.24,1.07-1.26.73-2.05,1.68-1.12,2.16.97.51,2.55-.22,3.71-.73,1.64-.73,3.81-1.77,5.37-.81,1.5.9.09,2.22-1.32,3.06-1.41.84-3.27,1.4-4.91,1.29l.13-.6c1.5.08,3.06-.44,4.13-1.07.97-.58,2.22-1.58,1.16-2.23-.98-.59-2.51.09-4,.77-1.78.8-3.58,1.57-5.01.79-1.4-.76-.42-2.03,1.21-2.99,1.17-.69,2.47-1.14,3.92-1.25l-.03.54Z"/><path class="cls-29" d="M519.49,613.53c-2.11-1.18-1.82-3.11.43-4.45s5.47-1.85,7.91-.13l-7.21,4.29c1.81.83,4.21.51,5.86-.48,1.05-.63,1.91-1.57,1.82-2.31l.97-.11c.12.97-.82,2.05-2.1,2.81-2.25,1.34-5.45,1.64-7.69.39ZM526.51,609.02c-1.75-.96-4.02-.74-5.95.41-1.65.98-2.1,2.38-.55,3.45l6.5-3.86Z"/><path class="cls-29" d="M530.79,599.35l9.97,5.59-.78.46-1.55-.87c.4.99-.31,2.11-1.67,2.92-2.24,1.33-5.3,1.65-7.63.34-2.32-1.3-1.85-3.1.39-4.42,1.38-.82,3.19-1.3,4.97-1.05l-4.47-2.51.78-.46ZM529.91,607.33c1.95,1.09,4.42.78,6.22-.29,1.88-1.12,2.06-2.62.31-3.61-1.75-.98-4.37-.8-6.22.29-1.8,1.07-2.29,2.5-.31,3.61Z"/><path class="cls-29" d="M551.3,587.16l9.97,5.59-.78.46-1.55-.87c.4.99-.31,2.11-1.67,2.92-2.24,1.33-5.3,1.65-7.63.34-2.32-1.3-1.85-3.1.39-4.43,1.38-.82,3.19-1.3,4.97-1.05l-4.47-2.51.78-.46ZM550.42,595.14c1.95,1.09,4.42.78,6.22-.29,1.88-1.12,2.06-2.62.31-3.61-1.75-.98-4.37-.8-6.22.29-1.8,1.07-2.29,2.5-.31,3.61Z"/><path class="cls-29" d="M555.28,585.53c.74.42-.54,1.18-1.28.76-.74-.42.54-1.18,1.28-.76ZM556.5,587.43l7.07,3.96.79-.47-7.07-3.96-.79.47Z"/><path class="cls-29" d="M567.28,581.05c2.35,1.32,4.69,2.63,7.04,3.94l-.79.47-1.5-.84c.32,1.08-.37,2.08-1.66,2.85-2.24,1.33-5.55,1.59-7.7.38-2.15-1.21-1.77-3.11.46-4.44,1.3-.77,3.14-1.25,4.9-1.03l-1.54-.86.79-.47ZM563.46,587.39c1.77.99,4.41.79,6.22-.29,4.46-2.65-1.43-5.95-5.88-3.3-1.81,1.08-2.11,2.6-.34,3.59Z"/><path class="cls-29" d="M588.34,576.66l-4.22-2.36c-1.35-.76-3.34-.68-4.87.23-1.52.9-1.58,2.09-.23,2.85l4.17,2.34-.79.47-4.17-2.34c-1.35-.76-3.39-.68-4.91.22-1.52.91-1.58,2.07-.22,2.83l4.17,2.34-.79.47-7.04-3.94.74-.44,1.19.65c-.38-.85.26-1.67,1.3-2.29,1.21-.72,2.98-1.21,4.7-.79-.67-.94,0-2,1.23-2.74,1.96-1.17,4.57-1.32,6.32-.33l4.22,2.36-.79.47Z"/><path class="cls-29" d="M595.65,564.18l1.25.7c-.35-.91.37-1.8,1.47-2.47,2.14-1.27,4.77-1.5,6.72-.41l4.06,2.28-.79.47-4.05-2.27c-1.6-.89-3.57-.71-5.29.33-1.64.99-1.69,2.29-.24,3.1l3.92,2.2-.79.47-7.04-3.94.78-.46Z"/><path class="cls-29" d="M607.36,561.31c-2.24-1.25-1.85-3.13.41-4.47,2.25-1.34,5.49-1.62,7.73-.37s1.79,3.1-.46,4.44c-2.25,1.34-5.43,1.65-7.67.4ZM614.71,556.93c-1.82-1.02-4.48-.81-6.29.27-1.81,1.08-2.11,2.62-.28,3.64,1.82,1.02,4.4.76,6.21-.32,1.81-1.08,2.19-2.57.37-3.59Z"/><path class="cls-29" d="M364.88,123.42h-4v-32.92c0-1.2-.33-2.1-.89-2.42-.56-.32-1.51-.16-2.54.44l-37.74,21.69-.16-4.74,35.91-20.42c2.31-1.33,4.7-1.5,6.53-.43,1.84,1.06,2.89,3.21,2.89,5.89v32.92Z"/><path class="cls-29" d="M126.72,330.21h-4v-100.8c0-5.61,3.8-12.2,8.66-15l25.15-14.04-.02,4.58-23.15,12.94c-3.59,2.07-6.64,7.35-6.64,11.52v100.8Z"/><path class="cls-29" d="M360.48,139.4c-.98,0-1.9-.25-2.71-.75-1.68-1.04-2.64-3.03-2.64-5.47,0-4.3,2.93-9.13,6.67-11,2.07-1.03,4.19-1.05,5.82-.04,1.68,1.04,2.64,3.03,2.64,5.47,0,4.3-2.93,9.13-6.67,11-1.05.52-2.11.79-3.11.79ZM364.91,125.39c-.37,0-.83.12-1.31.37-2.42,1.21-4.46,4.61-4.46,7.42,0,1.01.28,1.78.75,2.07.43.26,1.13.19,1.93-.21,2.42-1.21,4.46-4.61,4.46-7.42,0-1.01-.28-1.78-.75-2.07-.17-.1-.37-.15-.61-.15Z"/><path class="cls-29" d="M314.04,112.96l-6.06,3.5v-4l6.06-3.5v4ZM301.05,120.46l-6.06,3.5v-4l6.06-3.5v4ZM288.06,127.96l-6.06,3.5v-4l6.06-3.5v4ZM275.07,135.46l-6.06,3.5v-4l6.06-3.5v4ZM262.08,142.96l-6.06,3.5v-4l6.06-3.5v4ZM249.09,150.46l-6.06,3.5v-4l6.06-3.5v4ZM236.1,157.96l-6.06,3.5v-4l6.06-3.5v4ZM223.11,165.46l-6.06,3.5v-4l6.06-3.5v4ZM210.12,172.96l-6.06,3.5v-4l6.06-3.5v4ZM197.13,180.46l-6.06,3.5v-4l6.06-3.5v4ZM184.14,187.96l-6.06,3.5v-4l6.06-3.5v4ZM171.15,195.46l-6.06,3.5v-4l6.06-3.5v4Z"/><path class="cls-29" d="M207.13,720.16c-4.87,0-9.98-1.2-14.06-3.55L3.32,606.12C1.24,604.91,0,602.75,0,600.35c0-2.41,1.25-4.56,3.33-5.77l287.47-167.68,2.62-1.56c5.55-3.3,12.46-3.34,18.05-.1l189.23,109.86c4.23,2.44,6.65,5.82,6.66,9.28,0,2.99-1.78,5.67-5,7.53l-77.01,46.33-2.06-3.43,77.04-46.35c1.4-.81,3.03-2.16,3.03-4.08,0-1.96-1.74-4.13-4.66-5.82l-189.24-109.87c-4.33-2.51-9.69-2.48-13.99.08l-2.63,1.57L5.34,598.04c-.85.49-1.34,1.33-1.34,2.31,0,.98.48,1.82,1.33,2.31l189.75,110.49c6.17,3.56,15.84,4,21.11.95l61.97-34.88,1.96,3.49-61.95,34.87c-3,1.73-6.93,2.58-11.04,2.58Z"/><rect class="cls-29" x="281.59" y="636.82" width="140.06" height="4" transform="translate(-273.75 263.79) rotate(-30.22)"/><polygon class="cls-29" points="292.01 684.96 298.07 688.46 301.53 686.46 295.47 682.96 292.01 684.96"/><polygon class="cls-29" points="330.98 707.46 337.04 710.96 340.51 708.96 334.44 705.46 330.98 707.46"/><polygon class="cls-29" points="305 692.46 311.06 695.96 314.53 693.96 308.46 690.46 305 692.46"/><polygon class="cls-29" points="317.99 699.96 324.05 703.46 327.52 701.46 321.45 697.96 317.99 699.96"/><rect class="cls-29" x="468.83" y="580.18" width="4" height="108.35" transform="translate(-316.96 693.22) rotate(-57.69)"/><path class="cls-29" d="M285.79,683.48c-2.27,0-4.55-.51-6.32-1.53-2.04-1.18-3.2-2.93-3.2-4.8s1.17-3.63,3.2-4.8c3.54-2.04,9.1-2.04,12.64,0,2.04,1.18,3.2,2.93,3.2,4.8,0,1.88-1.17,3.63-3.2,4.8h0c-1.77,1.02-4.05,1.53-6.32,1.53ZM285.79,674.81c-1.58,0-3.17.33-4.32,1-.73.42-1.2.95-1.2,1.34s.47.92,1.2,1.34c2.3,1.33,6.34,1.33,8.64,0h0c.73-.42,1.2-.95,1.2-1.34s-.47-.92-1.2-1.34c-1.15-.67-2.74-1-4.32-1Z"/><path class="cls-29" d="M419.84,606.98c-2.27,0-4.55-.51-6.32-1.53-2.04-1.18-3.2-2.93-3.2-4.8s1.17-3.63,3.2-4.8c3.54-2.05,9.1-2.05,12.64,0,2.04,1.18,3.2,2.93,3.2,4.8,0,1.88-1.17,3.63-3.2,4.8-1.77,1.02-4.05,1.53-6.32,1.53ZM419.84,598.31c-1.58,0-3.17.33-4.32,1-.73.42-1.2.95-1.2,1.34s.47.92,1.2,1.34c2.3,1.33,6.34,1.33,8.64,0,.73-.42,1.2-.95,1.2-1.34s-.47-.92-1.2-1.34c-1.15-.66-2.74-1-4.32-1Z"/><g class="cls-1"><path class="cls-29" d="M315.03,728.17l30.84,17.81c3.25,1.88,3.25,4.92,0,6.79h0c-1.73,1-4.14,1.47-6.59,1.39-3.93-.13-7.94.67-10.94,2.4-5.97,3.45-5.56,9.18,1.22,12.31,5,2.31,12.31,2.38,17.42.17,4.09-1.77,6-4.45,5.75-7.08-.13-1.43.65-2.83,2.4-3.84h0c3.25-1.88,8.52-1.88,11.77,0l3.13,1.8,27.78,16.04,31.5-18.1c3.25-1.88,3.25-4.92,0-6.79h0c-1.75-1.01-4.18-1.46-6.66-1.39-4.55.14-9.19-.96-12.26-3.32-3.84-2.95-3.71-7.18.29-10.06,5.43-3.92,15.36-4.15,21.33-.7,3.01,1.73,4.39,4.05,4.16,6.32-.14,1.41.66,2.8,2.4,3.8h0c3.25,1.88,8.52,1.88,11.77,0l31.36-18.19-82.77-47.89-31.44,18.24c-3.25,1.88-3.25,4.92,0,6.79h0c1.73,1,4.14,1.47,6.59,1.39,3.93-.13,7.94.67,10.94,2.4,5.97,3.45,5.56,9.18-1.22,12.31-5,2.31-12.31,2.38-17.42.17-4.09-1.77-6-4.45-5.75-7.08.13-1.43-.65-2.83-2.4-3.84-3.25-1.88-8.52-1.88-11.77,0l-31.43,18.15Z"/></g><path class="cls-29" d="M329.11,170.68v10.6l6.43-3.71v.83l-7.31,4.22v-11.43l.88-.51Z"/><path class="cls-29" d="M336.68,173.72c0-2.56,1.83-5.25,4.1-6.56,2.27-1.31,4.1-.73,4.1,1.83s-1.83,5.19-4.1,6.5c-2.27,1.31-4.1.8-4.1-1.77ZM344.09,169.44c0-2.09-1.49-2.59-3.31-1.53-1.83,1.06-3.31,3.27-3.31,5.36s1.49,2.49,3.31,1.43c1.83-1.06,3.31-3.17,3.31-5.26Z"/><path class="cls-29" d="M347.47,163.44l.03,1.42c.51-1.39,1.65-2.47,2.68-3.06.6-.37,1.19-.54,1.73-.53l-.36.86c-.43-.02-.9.14-1.37.42-1.5.88-2.66,2.76-2.66,4.23v4.7l-.8.46v-8.07l.75-.43Z"/><path class="cls-29" d="M352.67,164.47c0-2.42,1.83-5.22,4.1-6.53,2.27-1.31,4.29-1.09,3.98,2.24l-7.27,4.19c.16,1.8,1.62,2.05,3.28,1.09,1.06-.61,2.3-1.75,2.91-2.9l.57.13c-.78,1.48-2.19,2.81-3.48,3.56-2.27,1.31-4.1.78-4.1-1.78ZM360.03,159.9c-.02-1.98-1.32-2.34-3.27-1.22-1.67.96-3.1,2.92-3.28,5l6.55-3.78Z"/><path class="cls-29" d="M374.61,155.84v-4.83c0-1.55-1.04-2.04-2.58-1.16-1.53.89-2.6,2.64-2.6,4.19v4.78l-.8.46v-4.78c0-1.55-1.06-2.07-2.6-1.18-1.53.89-2.58,2.62-2.58,4.17v4.78l-.8.46v-8.07l.75-.43.02,1.33c.56-1.38,1.58-2.42,2.63-3.02,1.22-.71,2.51-.9,2.99.27.49-1.6,1.75-3,2.99-3.72,1.98-1.14,3.38-.56,3.38,1.45v4.83l-.8.46Z"/><path class="cls-29" d="M386.15,138.48c0,.85-1.29,1.59-1.29.74s1.29-1.59,1.29-.74ZM385.09,141.69v8.1l.8-.46v-8.1l-.8.46Z"/><path class="cls-29" d="M388.18,151.37v-11.43l.78-.45v1.91c.64-1.59,1.93-3.14,3.49-4.04,2.19-1.18,3.92-.71,3.92,1.89s-1.83,5.24-4.1,6.55c-1.37.79-2.64.86-3.33-.09v5.23l-.77.44ZM395.57,139.7c0-2.27-1.47-2.53-3.3-1.48-1.88,1.08-3.27,3.31-3.27,5.28s1.42,2.58,3.27,1.51c1.83-1.06,3.3-3.05,3.3-5.32Z"/><path class="cls-29" d="M403.87,132.35c-.82-.25-1.62.08-2.51.6-1.26.71-2.47,1.88-2.43,2.89.03,1.06,1.44.46,2.45.06,1.44-.58,3.41-1.48,3.33.45-.05,1.81-1.89,3.35-3.31,4.17s-2.82,1.09-3.53.42l.59-.86c.67.58,1.88.29,2.96-.33.98-.57,2.46-1.68,2.51-2.99.03-1.18-1.31-.63-2.63-.08-1.57.64-3.12,1.24-3.13-.36-.02-1.58,1.57-3.17,3.2-4.1,1.18-.68,2.2-.95,3-.66l-.49.81Z"/><path class="cls-29" d="M412.98,133.69v-1.45c-.62,1.47-1.75,2.58-2.87,3.24-2.15,1.24-3.64.78-3.64-1.46v-4.65l.8-.46v4.64c0,1.83,1.13,2.16,2.87,1.13,1.66-.98,2.82-2.9,2.82-4.57v-4.49l.8-.46v8.08l-.78.45Z"/><path class="cls-29" d="M427.82,125.12v-4.83c0-1.55-1.04-2.04-2.58-1.16-1.54.89-2.6,2.64-2.6,4.19v4.78l-.8.46v-4.78c0-1.55-1.06-2.07-2.6-1.18s-2.58,2.62-2.58,4.17v4.78l-.8.46v-8.07l.75-.43.02,1.33c.56-1.38,1.58-2.42,2.63-3.02,1.22-.71,2.51-.9,2.99.27.49-1.6,1.75-3,2.99-3.72,1.97-1.14,3.38-.56,3.38,1.45v4.83l-.8.46Z"/><path class="cls-29" d="M334.69,197.35c-.82,1.29-1.88,2.29-2.94,2.9-2.27,1.31-4.15.83-4.15-1.72s1.81-5.16,4.15-6.51c1.06-.61,2.12-.82,2.94-.49l-.52.81c-.65-.28-1.55-.07-2.42.43-1.83,1.06-3.36,3.13-3.36,5.31s1.53,2.48,3.36,1.42c.87-.5,1.75-1.35,2.4-2.38l.54.23Z"/><path class="cls-29" d="M336.11,193.64c0-2.56,1.83-5.25,4.1-6.56,2.27-1.31,4.1-.73,4.1,1.83s-1.83,5.19-4.1,6.5c-2.27,1.31-4.1.8-4.1-1.77ZM343.52,189.36c0-2.09-1.49-2.59-3.31-1.53-1.83,1.06-3.31,3.27-3.31,5.36s1.49,2.49,3.31,1.43c1.83-1.06,3.31-3.17,3.31-5.26Z"/><path class="cls-29" d="M346.94,183.34v1.44c.62-1.47,1.75-2.58,2.87-3.24,2.15-1.24,3.64-.78,3.64,1.46v4.65l-.8.46v-4.64c0-1.83-1.13-2.16-2.87-1.13-1.67.98-2.82,2.9-2.82,4.57v4.49l-.8.46v-8.07l.78-.45Z"/><path class="cls-29" d="M361.08,176.65c-.82-.25-1.62.08-2.51.6-1.26.71-2.47,1.88-2.43,2.89.03,1.06,1.44.46,2.45.06,1.44-.58,3.41-1.48,3.33.45-.05,1.81-1.89,3.35-3.31,4.17-1.42.82-2.82,1.09-3.53.42l.59-.86c.67.58,1.88.29,2.96-.33.98-.57,2.46-1.68,2.51-2.99.03-1.18-1.31-.63-2.63-.08-1.57.64-3.12,1.24-3.13-.36-.02-1.57,1.57-3.17,3.2-4.1,1.18-.68,2.2-.95,3-.66l-.49.81Z"/><path class="cls-29" d="M363.23,177.97c0-2.42,1.83-5.22,4.1-6.53s4.29-1.09,3.98,2.24l-7.27,4.19c.16,1.8,1.62,2.05,3.28,1.09,1.06-.61,2.3-1.75,2.91-2.9l.57.13c-.78,1.48-2.19,2.81-3.48,3.56-2.27,1.31-4.1.78-4.1-1.78ZM370.59,173.39c-.02-1.98-1.32-2.34-3.26-1.22-1.67.96-3.1,2.92-3.28,5l6.55-3.78Z"/><path class="cls-29" d="M380,171.19c-.82,1.29-1.88,2.29-2.94,2.9-2.27,1.31-4.15.83-4.15-1.72s1.81-5.16,4.15-6.51c1.06-.61,2.12-.82,2.94-.49l-.52.81c-.65-.28-1.55-.07-2.42.43-1.83,1.06-3.36,3.13-3.36,5.31s1.53,2.48,3.36,1.42c.87-.5,1.75-1.35,2.4-2.38l.54.23Z"/><path class="cls-29" d="M383.48,159.81v2.43l2.74-1.58v.67l-2.74,1.58v4.91c0,1.09.23,1.73,1.49,1,.39-.23.83-.61,1.24-1.04l.28.49c-.51.54-1.01.99-1.52,1.28-1.71.99-2.27.3-2.27-1.29v-4.92l-1.71.99v-.67l1.71-.99v-2.35l.78-.53Z"/><path class="cls-29" d="M387.61,163.89c0-2.42,1.83-5.22,4.1-6.53,2.27-1.31,4.29-1.09,3.98,2.24l-7.26,4.19c.16,1.8,1.62,2.06,3.28,1.09,1.06-.61,2.3-1.75,2.91-2.9l.57.13c-.78,1.48-2.19,2.81-3.48,3.56-2.27,1.31-4.1.78-4.1-1.78ZM394.97,159.32c-.02-1.98-1.32-2.34-3.27-1.22-1.67.96-3.1,2.92-3.28,5l6.55-3.78Z"/><path class="cls-29" d="M399.27,150.7v2.43l2.74-1.58v.67l-2.74,1.58v4.92c0,1.09.23,1.73,1.49,1,.39-.23.83-.61,1.24-1.04l.28.49c-.51.54-1.01.99-1.52,1.28-1.71.99-2.27.3-2.27-1.29v-4.92l-1.71.99v-.67l1.71-.99v-2.35l.78-.53Z"/><path class="cls-29" d="M410.35,154.8v-1.45c-.62,1.47-1.75,2.58-2.87,3.24-2.15,1.24-3.64.78-3.64-1.46v-4.65l.8-.46v4.64c0,1.83,1.13,2.16,2.87,1.13,1.67-.98,2.82-2.9,2.82-4.57v-4.49l.8-.46v8.08l-.78.45Z"/><path class="cls-29" d="M412.79,149.36c0-2.42,1.83-5.22,4.1-6.53,2.27-1.31,4.29-1.09,3.98,2.24l-7.27,4.19c.16,1.8,1.62,2.05,3.28,1.09,1.06-.61,2.3-1.75,2.91-2.9l.57.13c-.78,1.48-2.19,2.81-3.48,3.56-2.27,1.31-4.1.78-4.1-1.78ZM420.15,144.78c-.02-1.98-1.32-2.34-3.27-1.22-1.67.96-3.1,2.92-3.28,5l6.55-3.78Z"/><path class="cls-29" d="M423.69,139.03l.03,1.42c.51-1.39,1.65-2.47,2.68-3.06.6-.36,1.19-.54,1.73-.53l-.36.86c-.42-.02-.9.14-1.37.42-1.5.88-2.66,2.76-2.66,4.23v4.7l-.8.46v-8.07l.75-.43Z"/><path class="cls-29" d="M333.61,212.1c-.82-.25-1.62.08-2.51.6-1.26.71-2.46,1.88-2.43,2.89.03,1.06,1.44.46,2.45.06,1.44-.58,3.41-1.48,3.33.45-.05,1.81-1.89,3.35-3.31,4.17s-2.82,1.09-3.53.42l.59-.86c.67.58,1.88.29,2.95-.33.98-.57,2.47-1.68,2.51-2.99.03-1.18-1.31-.63-2.63-.08-1.57.64-3.12,1.24-3.13-.36-.02-1.57,1.57-3.17,3.2-4.1,1.18-.68,2.2-.95,3-.66l-.49.81Z"/><path class="cls-29" d="M335.77,213.42c0-2.42,1.83-5.22,4.1-6.53s4.29-1.09,3.98,2.24l-7.26,4.19c.16,1.8,1.62,2.06,3.28,1.09,1.06-.61,2.3-1.75,2.91-2.9l.57.13c-.78,1.48-2.19,2.81-3.48,3.56-2.27,1.31-4.1.78-4.1-1.78ZM343.13,208.84c-.02-1.98-1.32-2.34-3.27-1.22-1.67.96-3.1,2.92-3.28,5l6.55-3.78Z"/><path class="cls-29" d="M353.66,195.69v11.43l-.78.45v-1.78c-.67,1.61-1.99,3.06-3.36,3.85-2.25,1.3-4.03.84-4.03-1.84s1.8-5.2,4.05-6.5c1.39-.8,2.69-.97,3.35-.04v-5.13l.78-.45ZM346.27,207.36c0,2.24,1.49,2.52,3.3,1.48,1.89-1.09,3.3-3.29,3.3-5.3s-1.44-2.55-3.3-1.48c-1.81,1.05-3.3,3.03-3.3,5.3Z"/><path class="cls-29" d="M374.33,183.76v11.43l-.78.45v-1.78c-.67,1.61-1.99,3.06-3.36,3.85-2.25,1.3-4.03.84-4.03-1.84s1.8-5.2,4.05-6.5c1.39-.8,2.69-.97,3.35-.04v-5.13l.78-.45ZM366.93,195.43c0,2.24,1.49,2.52,3.3,1.48,1.89-1.09,3.3-3.29,3.3-5.3s-1.44-2.55-3.3-1.48c-1.81,1.05-3.3,3.03-3.3,5.3Z"/><path class="cls-29" d="M377.69,182.55c0,.85-1.29,1.59-1.29.74s1.29-1.59,1.29-.74ZM376.63,185.76v8.1l.8-.46v-8.1l-.8.46Z"/><path class="cls-29" d="M387.47,179.53v8.07l-.8.46v-1.71c-.78,1.71-1.99,2.99-3.3,3.75-2.25,1.3-4.1.67-4.1-1.8s1.84-5.2,4.1-6.5c1.31-.75,2.63-.91,3.3-.04v-1.76l.8-.46ZM380.08,187.84c0,2.02,1.47,2.53,3.3,1.48,4.49-2.59,4.49-9.34,0-6.74-1.83,1.06-3.3,3.24-3.3,5.27Z"/><path class="cls-29" d="M401.59,179.45v-4.83c0-1.55-1.04-2.04-2.58-1.16-1.53.89-2.6,2.64-2.6,4.19v4.78l-.8.46v-4.78c0-1.55-1.06-2.07-2.6-1.18s-2.58,2.62-2.58,4.17v4.78l-.8.46v-8.07l.75-.43.02,1.33c.56-1.38,1.58-2.42,2.63-3.02,1.22-.71,2.51-.9,2.99.27.49-1.6,1.75-3,2.99-3.72,1.98-1.14,3.38-.56,3.38,1.45v4.83l-.8.46Z"/><path class="cls-29" d="M416.06,163.03v1.44c.62-1.47,1.75-2.58,2.87-3.24,2.15-1.24,3.64-.78,3.64,1.46v4.65l-.8.46v-4.64c0-1.83-1.13-2.16-2.87-1.13-1.67.98-2.82,2.9-2.82,4.57v4.49l-.8.46v-8.07l.78-.45Z"/><path class="cls-29" d="M424.29,162.33c0-2.56,1.83-5.25,4.1-6.56,2.27-1.31,4.1-.73,4.1,1.83s-1.83,5.19-4.1,6.5c-2.27,1.31-4.1.8-4.1-1.77ZM431.7,158.05c0-2.09-1.49-2.59-3.31-1.53-1.83,1.06-3.31,3.27-3.31,5.36s1.49,2.49,3.31,1.43c1.83-1.06,3.31-3.17,3.31-5.26Z"/><path class="cls-29" d="M546.94,707.64c-2.27,0-4.55-.51-6.32-1.53-2.04-1.18-3.2-2.93-3.2-4.8s1.17-3.63,3.2-4.8c3.54-2.05,9.1-2.05,12.64,0,2.04,1.18,3.2,2.93,3.2,4.8,0,1.88-1.17,3.63-3.2,4.8h0c-1.77,1.02-4.05,1.53-6.32,1.53ZM546.94,698.96c-1.58,0-3.17.33-4.32,1-.73.42-1.2.95-1.2,1.34s.47.92,1.2,1.34c2.3,1.33,6.34,1.33,8.64,0h0c.73-.42,1.2-.95,1.2-1.34s-.47-.92-1.2-1.34c-1.15-.66-2.74-1-4.32-1Z"/><path class="cls-4" d="M683.72,401.61l-130.49-75.85c-2.24-1.3-2.24-4.53-.01-5.83l39.25-23.03c3.04-1.79,6.81-1.79,9.86-.02l128.65,74.77c2.96,1.72,2.97,6,.02,7.74l-37.84,22.2c-2.91,1.71-6.51,1.71-9.43.02Z"/><path class="cls-10" d="M730.98,376.85l-37.84,22.2c-2.91,1.71-6.51,1.71-9.43.02l-130.49-75.85c-.69-.4-1.14-.99-1.41-1.65-.59,1.47-.14,3.29,1.41,4.19l130.49,75.85c2.92,1.69,6.52,1.69,9.43-.02l37.84-22.2c1.9-1.11,2.56-3.27,2.01-5.14-.3,1.03-.96,1.98-2.01,2.6Z"/><path class="cls-12" d="M551.58,322.34h-.03v.33c0-.11.01-.22.03-.33Z"/><path class="cls-23" d="M683.71,401.61c.53.3,1.07.55,1.63.74v8.52c-.56-.19-1.1-.44-1.63-.74l-130.49-75.85c-1.18-.68-1.73-1.9-1.67-3.1v-8.17c.05,1.08.61,2.13,1.67,2.75l130.49,75.85Z"/><path class="cls-23" d="M733.21,375.65v8.48l-.16.1c-.28,1.62-.97,3.04-2.07,3.69l-37.84,22.2c-.37.21-.74.4-1.13.56v-8.52c.38-.17.76-.35,1.13-.57l37.84-22.2c1.44-.84,2.17-2.28,2.21-3.74h.02Z"/><path class="cls-4" d="M692.2,402.15v8.52c-2.21.89-4.69.96-6.95.2v-8.52c2.26.76,4.73.68,6.95-.2Z"/><path class="cls-10" d="M666.77,366.55l-53.8-31.06c-2.23-1.29-1.95-3.54.63-5.03l13.47-7.77c2.58-1.49,6.48-1.65,8.71-.36l53.8,31.06c2.23,1.29,1.95,3.54-.63,5.03l-13.47,7.77c-2.58,1.49-6.48,1.65-8.71.36Z"/><path class="cls-23" d="M688.95,357.34l-13.47,7.77c-2.58,1.49-6.48,1.65-8.71.36l-53.8-31.06c-.78-.45-1.24-1.03-1.41-1.64-.25,1,.19,2,1.41,2.71l53.8,31.06c2.23,1.29,6.13,1.13,8.71-.36l13.47-7.77c1.67-.97,2.36-2.25,2.04-3.39-.21.82-.88,1.65-2.04,2.32Z"/><path class="cls-13" d="M666.38,103.66c0,3.25-2.28,4.57-5.1,2.94-2.81-1.63-5.1-5.58-5.1-8.83s2.28-4.57,5.1-2.94c2.81,1.63,5.1,5.58,5.1,8.83Z"/><path class="cls-11" d="M662.95,101.67c0,1.06-.74,1.49-1.66.96-.92-.53-1.66-1.82-1.66-2.88s.74-1.49,1.66-.96c.92.53,1.66,1.82,1.66,2.88Z"/><path class="cls-11" d="M662.24,106.79c-2.81-1.63-5.1-5.58-5.1-8.83,0-2.41,1.25-3.74,3.05-3.62-2.29-.74-4,.62-4,3.43,0,3.25,2.28,7.2,5.1,8.83.73.42,1.42.64,2.05.68-.35-.11-.72-.27-1.1-.49Z"/><path class="cls-17" d="M669.51,300.56v60.54c-.5.03-.97-.05-1.32-.26l-43.57-25.16c-.53-.31-.6-.79-.26-1.2l5.05-45.49,40.1,11.56Z"/><path class="cls-17" d="M682.87,353.83l-11.95,6.89c-.41.24-.91.36-1.4.38v-60.54l13.32,3.83.62,48.28c.17.38-.02.82-.58,1.16Z"/><path class="cls-16" d="M668.4,312.1l-38.65-21.95c-.7-.4-.61-1.1.2-1.57l11.96-6.9c.8-.46,2.02-.51,2.72-.11l38.65,21.95c.7.4.61,1.1-.2,1.57l-11.96,6.9c-.8.46-2.02.51-2.72.11Z"/><path class="cls-4" d="M671.3,311.87l-4.06-1.17v49.59l.95.55c.7.4,1.91.35,2.72-.11l.39-.23v-48.63Z"/><path class="cls-4" d="M786.84,159.26L526.09,8.71c-6.93-4-12.55-.77-12.55,7.22v208.34c0,7.99,5.62,17.71,12.55,21.71l260.75,150.55c6.93,4,12.55.77,12.55-7.22v-208.34c0-7.99-5.62-17.71-12.55-21.71Z"/><path class="cls-10" d="M799.39,389.31v-12.5l-285.85-165.04v12.5c0,7.99,5.62,17.71,12.55,21.71l260.75,150.55c6.93,4,12.55.77,12.55-7.22Z"/><path class="cls-10" d="M786.84,159.26L526.09,8.71c-4.05-2.34-7.63-2.19-9.93-.09,2.09-.58,4.66-.16,7.45,1.46l260.75,150.55c6.93,4,12.55,13.72,12.55,21.71v208.34c0,3.33-.98,5.81-2.62,7.31,3.09-.85,5.1-3.91,5.1-8.68v-208.34c0-7.99-5.62-17.71-12.55-21.71Z"/><path class="cls-7" d="M525.96,218.9l258.05,149.31c2.02,1.17,4.56-.29,4.56-2.63v-184.47c0-3.95-2.11-7.59-5.52-9.57L528.53,24.27c-3.29-1.9-7.41.48-7.41,4.28v181.97c0,3.45,1.84,6.65,4.83,8.37Z"/><polygon class="cls-25" points="704.66 308.55 533.55 209.75 533.55 192.55 535.93 193.92 535.93 208.38 704.66 305.8 704.66 308.55"/><polygon class="cls-25" points="774.6 348.92 728.51 322.31 728.51 319.56 772.22 344.8 772.22 234.36 774.6 235.74 774.6 348.92"/><polygon class="cls-25" points="774.6 208.26 772.22 206.89 772.22 181.68 656.58 114.92 656.58 112.17 774.6 180.31 774.6 208.26"/><polygon class="cls-25" points="535.93 68.27 533.55 66.89 533.55 41.14 608.99 84.69 608.99 87.44 535.93 45.26 535.93 68.27"/><polygon class="cls-25" points="535.93 174.08 533.55 172.71 533.55 97.67 535.93 99.04 535.93 174.08"/><polygon class="cls-42" points="593.76 232.62 543.85 203.81 543.85 144.04 546.23 145.41 546.23 202.43 593.76 229.87 593.76 232.62"/><polygon class="cls-25" points="764.3 331.08 616.24 245.6 616.24 242.86 761.92 326.96 761.92 296 764.3 297.38 764.3 331.08"/><polygon class="cls-25" points="764.3 271.68 761.92 270.3 761.92 187.63 724.9 166.25 724.9 163.51 764.3 186.25 764.3 271.68"/><polygon class="cls-25" points="546.23 130.46 543.85 129.09 543.85 58.98 704.81 151.91 704.81 154.66 546.23 63.1 546.23 130.46"/><polygon class="cls-42" points="754 207.82 751.62 206.44 751.62 193.57 692.98 159.96 692.98 157.21 754 192.2 754 207.82"/><polygon class="cls-25" points="574 209.33 554.14 197.86 554.14 76.81 625.31 117.9 625.31 120.65 556.52 80.93 556.52 196.49 574 206.58 574 209.33"/><polygon class="cls-25" points="754 313.25 590.14 218.64 590.14 215.89 751.62 309.13 751.62 224.28 754 225.65 754 313.25"/><polygon class="cls-25" points="566.82 115.4 564.44 114.03 564.44 94.65 586.23 107.23 586.23 109.98 566.82 98.77 566.82 115.4"/><polygon class="cls-25" points="698.06 269.06 564.44 191.92 564.44 135.33 566.82 136.7 566.82 190.54 698.06 266.31 698.06 269.06"/><polygon class="cls-42" points="743.7 295.41 718.15 280.66 718.15 277.91 741.32 291.29 741.32 259.56 743.7 260.93 743.7 295.41"/><polygon class="cls-25" points="743.7 242 741.32 240.62 741.32 199.52 687.2 167.94 687.2 165.2 743.7 198.14 743.7 242"/><polygon class="cls-25" points="592.79 196.39 574.74 185.97 574.74 112.49 612.45 134.22 612.45 136.97 577.12 116.61 577.12 184.6 592.79 193.64 592.79 196.39"/><polygon class="cls-25" points="733.4 277.58 655.69 232.6 655.69 229.86 731.02 273.45 731.02 205.46 702.09 188.76 702.09 186.01 733.4 204.09 733.4 277.58"/><path class="cls-25" d="M588.63,115.52c-2.64-1.53-4.79-5.25-4.79-8.3s2.15-4.29,4.79-2.77c2.64,1.53,4.79,5.25,4.79,8.3s-2.15,4.29-4.79,2.77ZM588.63,107.2c-1.33-.77-2.41-.14-2.41,1.39s1.08,3.41,2.41,4.18c1.33.77,2.41.14,2.41-1.39s-1.08-3.41-2.41-4.18Z"/><path class="cls-42" d="M545.04,146.46c-2.64-1.53-4.79-5.25-4.79-8.3s2.15-4.29,4.79-2.77c2.64,1.53,4.79,5.25,4.79,8.3s-2.15,4.29-4.79,2.77ZM545.04,138.14c-1.33-.77-2.41-.14-2.41,1.39s1.08,3.41,2.41,4.18c1.33.77,2.41.14,2.41-1.39s-1.08-3.41-2.41-4.18Z"/><path class="cls-25" d="M701.27,275.08c-2.64-1.53-4.79-5.25-4.79-8.3s2.15-4.29,4.79-2.77,4.79,5.25,4.79,8.3-2.15,4.29-4.79,2.77ZM701.27,266.75c-1.33-.77-2.41-.14-2.41,1.39s1.08,3.41,2.41,4.18,2.41.14,2.41-1.39-1.08-3.41-2.41-4.18Z"/><path class="cls-42" d="M742.73,261.74c-2.64-1.53-4.79-5.25-4.79-8.3s2.15-4.29,4.79-2.77,4.79,5.25,4.79,8.3-2.15,4.29-4.79,2.77ZM742.73,253.42c-1.33-.77-2.41-.14-2.41,1.39s1.08,3.41,2.41,4.18c1.33.77,2.41.14,2.41-1.39s-1.08-3.41-2.41-4.18Z"/><path class="cls-42" d="M597.36,238.87c-2.64-1.53-4.79-5.25-4.79-8.3s2.15-4.29,4.79-2.77c2.64,1.53,4.79,5.25,4.79,8.3s-2.15,4.29-4.79,2.77ZM597.36,230.54c-1.33-.77-2.41-.14-2.41,1.39s1.08,3.41,2.41,4.18c1.33.77,2.41.14,2.41-1.39s-1.08-3.41-2.41-4.18Z"/><path class="cls-42" d="M752.81,216.53c-2.64-1.53-4.79-5.25-4.79-8.3s2.15-4.29,4.79-2.77c2.64,1.53,4.79,5.25,4.79,8.3s-2.15,4.29-4.79,2.77ZM752.81,208.21c-1.33-.77-2.41-.14-2.41,1.39s1.08,3.41,2.41,4.18c1.33.77,2.41.14,2.41-1.39s-1.08-3.41-2.41-4.18Z"/><path class="cls-25" d="M699.34,190.94c-2.64-1.53-4.79-5.25-4.79-8.3s2.15-4.29,4.79-2.77c2.64,1.53,4.79,5.25,4.79,8.3s-2.15,4.29-4.79,2.77ZM699.34,182.62c-1.33-.77-2.41-.14-2.41,1.39s1.08,3.41,2.41,4.18c1.33.77,2.41.14,2.41-1.39s-1.08-3.41-2.41-4.18Z"/><path class="cls-25" d="M628.65,126.77c-2.64-1.53-4.79-5.25-4.79-8.3s2.15-4.29,4.79-2.77c2.64,1.53,4.79,5.25,4.79,8.3s-2.15,4.29-4.79,2.77ZM628.65,118.45c-1.33-.77-2.41-.14-2.41,1.39s1.08,3.41,2.41,4.18c1.33.77,2.41.14,2.41-1.39s-1.08-3.41-2.41-4.18Z"/><path class="cls-25" d="M565.54,137.34c-2.64-1.53-4.79-5.25-4.79-8.3s2.15-4.29,4.79-2.77c2.64,1.53,4.79,5.25,4.79,8.3s-2.15,4.29-4.79,2.77ZM565.54,129.01c-1.33-.77-2.41-.14-2.41,1.39s1.08,3.41,2.41,4.18,2.41.14,2.41-1.39-1.08-3.41-2.41-4.18Z"/><path class="cls-25" d="M763.11,298.89c-2.64-1.53-4.79-5.25-4.79-8.3s2.15-4.29,4.79-2.77c2.64,1.53,4.79,5.25,4.79,8.3s-2.15,4.29-4.79,2.77ZM763.11,290.56c-1.33-.77-2.41-.14-2.41,1.39s1.08,3.41,2.41,4.18c1.33.77,2.41.14,2.41-1.39s-1.08-3.41-2.41-4.18Z"/><path class="cls-14" d="M785.3,367.35l-258.05-149.31c-2.99-1.73-4.83-4.92-4.83-8.37V27.69c0-1.48.63-2.74,1.59-3.62-1.65.76-2.87,2.4-2.87,4.48v181.97c0,3.45,1.84,6.65,4.83,8.37l258.05,149.31c1.33.77,2.87.39,3.78-.63-.78.27-1.68.24-2.5-.23Z"/><path class="cls-23" d="M803.4,154.71l-12.48,7.7c-1.27-1.25-2.65-2.33-4.07-3.15L526.1,8.72c-2.79-1.61-5.34-2.04-7.42-1.47l11.94-6.62.07.07c2.26-1.15,5.28-.92,8.62,1.01l260.75,150.54c1.16.67,2.29,1.5,3.35,2.46Z"/><path class="cls-23" d="M812.6,173.97v208.33c0,4.16-1.52,7.01-3.95,8.24l.03.07-13.58,7.18-.03-.07c2.63-1.11,4.33-4.05,4.33-8.41v-208.35c0-1.52-.21-3.11-.58-4.72l13.03-7.59c.5,1.8.75,3.61.75,5.32Z"/><path class="cls-3" d="M811.84,168.65l-13.03,7.59c-1.2-5.04-4.16-10.21-7.9-13.84l12.48-7.7c3.95,3.52,7.1,8.76,8.45,13.94Z"/><path class="cls-51" d="M697.69,192.1l.1.02c-3.78-14.52-11.8-29.15-22.07-40.4l-.05.1-8.67,5.13,3.54,5.13-11.73,23.47,25.42,4.29,4.84,7.52,8.62-5.25Z"/><path class="cls-37" d="M697.07,208.54l-42.14,24.23c3.58,2.15,7.23,3.8,10.87,4.85,3.29.94,6.39,1.34,9.26,1.24l-.23,3.22,10.43-6.1v-.02c7.61-4.6,12-14.36,11.81-27.42Z"/><polygon class="cls-48" points="627.5 134.18 616.53 140.72 618.13 148.42 627.72 142.61 627.5 134.18"/><path class="cls-31" d="M697.07,208.54l-42.14,24.23c-18.22-10.9-34.69-34.77-39.35-58.85-5.57-28.81,7.88-47.01,30.06-40.64,5.82,1.67,11.64,4.89,17.19,9.22l-12.34,46.46,46.58,19.57Z"/><path class="cls-45" d="M689.07,197.35c-3.78-14.52-11.8-29.15-22.07-40.4l-16.91,33.83,38.98,6.58Z"/><path class="cls-50" d="M653.9,147.81c-5.55-4.33-11.38-7.55-17.2-9.22-22.17-6.37-35.62,11.83-30.05,40.64,5.57,28.81,28.06,57.33,50.23,63.7,19.02,5.46,31.59-7.19,31.26-29.08l-46.58-19.57,12.34-46.47Z"/><polygon class="cls-37" points="641.56 194.27 650.5 188.97 662.83 142.5 653.9 147.81 641.56 194.27"/><path class="cls-42" d="M687.8,197.13l1.27.21c-3.78-14.52-11.8-29.15-22.07-40.4l-.53,1.07c9.85,10.99,17.55,25.08,21.33,39.12Z"/><path class="cls-33" d="M641.56,194.27l12.34-46.47c-5.55-4.33-11.38-7.55-17.2-9.22-7.33-2.1-13.69-1.51-18.74,1.25,4.83-2.18,10.73-2.52,17.44-.59,5.82,1.67,11.65,4.9,17.2,9.22l-12.34,46.47,46.58,19.57c.2,13.47-4.49,23.42-12.54,27.83,8.86-4.01,14.06-14.31,13.85-28.49l-46.58-19.57Z"/><path class="cls-15" d="M38.21,366.43l241.89-139.65c3-1.73,5.73-1.98,7.8-1.02h0s.18.09.18.09c.15.08.29.16.43.25l6.2,3.97-2.32,7.93-.66-.39v190.61L32.31,574.14v10.48l-3.16-1.99c-1.6-1.01-2.57-2.77-2.57-4.66v-191.37c0-7.39,5.24-16.47,11.64-20.16Z"/><path class="cls-41" d="M62.36,402.95l-.45.56-34.99-20.47c.92-4.86,4.35-10.77,7.74-13.91l27.7,17.02v16.81Z"/><path class="cls-4" d="M31.96,584.7v-194.71c0-7.39,5.24-16.47,11.64-20.16l241.89-139.65c6.4-3.7,11.64-.67,11.64,6.72v194.71L31.96,584.7Z"/><path class="cls-10" d="M34.95,391.19c0-7.39,5.24-16.47,11.64-20.16l241.89-139.65c2.16-1.25,4.18-1.71,5.91-1.52-2.14-1.7-5.34-1.73-8.91.32L43.6,369.82c-6.4,3.7-11.64,12.77-11.64,20.16v194.71l2.99-1.73v-191.79Z"/><polygon class="cls-7" points="46.73 554.91 281.08 419.6 281.08 248.29 46.73 383.59 46.73 554.91"/><polygon class="cls-22" points="268.57 348.78 63.74 467.04 63.74 407.88 268.57 289.62 268.57 348.78"/><polygon class="cls-22" points="268.57 426.88 63.74 545.14 63.74 473.94 268.57 355.68 268.57 426.88"/><polygon class="cls-29" points="83.64 428.38 83.07 428.71 83.07 396.28 83.64 395.95 83.64 428.38"/><polygon class="cls-29" points="98.44 426.63 97.87 426.96 97.87 387.74 98.44 387.41 98.44 426.63"/><polygon class="cls-29" points="113.24 414.8 112.67 415.12 112.67 379.19 113.24 378.86 113.24 414.8"/><polygon class="cls-29" points="128.04 409.54 127.47 409.87 127.47 370.65 128.04 370.32 128.04 409.54"/><polygon class="cls-29" points="142.84 388.07 142.27 388.39 142.27 362.1 142.84 361.77 142.84 388.07"/><polygon class="cls-29" points="157.64 371.41 157.07 371.74 157.07 353.56 157.64 353.23 157.64 371.41"/><polygon class="cls-29" points="172.44 370.98 171.87 371.3 171.87 345.01 172.44 344.68 172.44 370.98"/><polygon class="cls-29" points="187.24 377.77 186.67 378.1 186.67 336.47 187.24 336.14 187.24 377.77"/><polygon class="cls-29" points="202.04 360.9 201.47 361.23 201.47 327.92 202.04 327.59 202.04 360.9"/><polygon class="cls-29" points="216.84 358.27 216.27 358.6 216.27 319.38 216.84 319.05 216.84 358.27"/><polygon class="cls-29" points="231.64 337.67 231.07 338 231.07 310.83 231.64 310.5 231.64 337.67"/><polygon class="cls-29" points="246.44 321.02 245.87 321.35 245.87 302.29 246.44 301.96 246.44 321.02"/><polygon class="cls-18" points="46.73 395.08 281.08 259.78 281.08 248.74 46.73 384.04 46.73 395.08"/><path class="cls-20" d="M52.65,387.92l-.41.24c-.74.43-1.33-.03-1.33-1.01h0c0-.98.6-2.12,1.33-2.55l.41-.24c.74-.43,1.33.03,1.33,1.01h0c0,.98-.6,2.12-1.33,2.55Z"/><path class="cls-20" d="M57.63,385.05l-.41.24c-.74.43-1.33-.03-1.33-1.01h0c0-.98.6-2.12,1.33-2.55l.41-.24c.74-.43,1.33.03,1.33,1.01h0c0,.98-.6,2.12-1.33,2.55Z"/><path class="cls-20" d="M62.61,382.17l-.41.24c-.74.43-1.33-.03-1.33-1.01h0c0-.98.6-2.12,1.33-2.55l.41-.24c.74-.43,1.33.03,1.33,1.01h0c0,.98-.6,2.12-1.33,2.55Z"/><polygon class="cls-32" points="98.42 430.4 83.71 431.42 71.2 442.69 70.89 441.6 83.8 429.97 98.51 428.96 112.75 416.38 128.11 410.29 143.47 387.77 157.41 370.47 172.43 370.47 187.17 377.37 201.59 360.42 217.01 356.44 230.9 336.57 246.13 320.54 258.21 311.39 258.38 312.58 246.37 321.69 231.4 337.47 217.24 357.75 201.72 361.75 186.99 379.06 171.72 371.91 157.44 371.94 144.07 388.54 128.41 411.5 112.81 417.69 98.42 430.4"/><path class="cls-32" d="M85.16,429.77c0,1.15-.81,2.56-1.81,3.13-1,.58-1.81.11-1.81-1.04s.81-2.56,1.81-3.13c1-.58,1.81-.11,1.81,1.04Z"/><path class="cls-32" d="M83.35,433.56c-1.31.76-2.38.14-2.38-1.37s1.07-3.36,2.38-4.12c1.31-.76,2.38-.14,2.38,1.37s-1.07,3.36-2.38,4.12ZM83.35,429.38c-.68.39-1.24,1.36-1.24,2.15s.56,1.11,1.24.72c.68-.39,1.24-1.36,1.24-2.15s-.56-1.11-1.24-.72Z"/><path class="cls-32" d="M100.12,428.55c0,1.15-.81,2.56-1.81,3.13-1,.58-1.81.11-1.81-1.04s.81-2.56,1.81-3.13c1-.58,1.81-.11,1.81,1.04Z"/><path class="cls-32" d="M98.31,432.34c-1.31.76-2.38.14-2.38-1.37s1.07-3.36,2.38-4.12c1.31-.76,2.38-.14,2.38,1.37s-1.07,3.36-2.38,4.12ZM98.31,428.17c-.68.39-1.24,1.36-1.24,2.15s.56,1.11,1.24.72c.68-.39,1.24-1.36,1.24-2.15s-.56-1.11-1.24-.71Z"/><path class="cls-32" d="M115.04,415.56c0,1.15-.81,2.56-1.81,3.13-1,.58-1.81.11-1.81-1.04s.81-2.56,1.81-3.13c1-.58,1.81-.11,1.81,1.04Z"/><path class="cls-32" d="M113.23,419.35c-1.31.76-2.38.14-2.38-1.37s1.07-3.36,2.38-4.12,2.38-.14,2.38,1.37-1.07,3.36-2.38,4.12ZM113.23,415.17c-.68.39-1.24,1.36-1.24,2.15s.56,1.11,1.24.72c.68-.39,1.24-1.36,1.24-2.15s-.56-1.11-1.24-.71Z"/><path class="cls-32" d="M129.92,409.77c0,1.15-.81,2.56-1.81,3.13-1,.58-1.81.11-1.81-1.04s.81-2.56,1.81-3.13c1-.58,1.81-.11,1.81,1.04Z"/><path class="cls-32" d="M128.11,413.56c-1.31.76-2.38.14-2.38-1.37s1.07-3.36,2.38-4.12,2.38-.14,2.38,1.37-1.07,3.36-2.38,4.12ZM128.11,409.38c-.68.39-1.24,1.36-1.24,2.15s.56,1.11,1.24.71c.68-.39,1.24-1.36,1.24-2.15s-.56-1.11-1.24-.72Z"/><path class="cls-32" d="M145.11,387.57c0,1.15-.81,2.56-1.81,3.13-1,.58-1.81.11-1.81-1.04s.81-2.56,1.81-3.13c1-.58,1.81-.11,1.81,1.04Z"/><path class="cls-32" d="M143.3,391.36c-1.31.76-2.38.14-2.38-1.37s1.07-3.36,2.38-4.12,2.38-.14,2.38,1.37-1.07,3.36-2.38,4.12ZM143.3,387.18c-.68.39-1.24,1.36-1.24,2.15s.56,1.11,1.24.72c.68-.39,1.24-1.36,1.24-2.15s-.56-1.11-1.24-.72Z"/><path class="cls-32" d="M159.23,370.16c0,1.15-.81,2.56-1.81,3.13-1,.58-1.81.11-1.81-1.04s.81-2.56,1.81-3.13c1-.58,1.81-.11,1.81,1.04Z"/><path class="cls-32" d="M157.43,373.95c-1.31.76-2.38.14-2.38-1.37s1.07-3.36,2.38-4.12,2.38-.14,2.38,1.37-1.07,3.36-2.38,4.12ZM157.43,369.78c-.68.39-1.24,1.36-1.24,2.15s.56,1.11,1.24.71c.68-.39,1.24-1.36,1.24-2.15s-.56-1.11-1.24-.72Z"/><path class="cls-32" d="M174.15,369.61c0,1.15-.81,2.56-1.81,3.13-1,.58-1.81.11-1.81-1.04s.81-2.56,1.81-3.13,1.81-.11,1.81,1.04Z"/><path class="cls-32" d="M172.34,373.4c-1.31.76-2.38.14-2.38-1.37s1.07-3.36,2.38-4.12,2.38-.14,2.38,1.37-1.07,3.36-2.38,4.12ZM172.34,369.22c-.68.39-1.24,1.36-1.24,2.15s.56,1.11,1.24.72c.68-.39,1.24-1.36,1.24-2.15s-.56-1.11-1.24-.72Z"/><path class="cls-32" d="M188.58,377.52c0,1.15-.81,2.56-1.81,3.13-1,.58-1.81.11-1.81-1.04s.81-2.56,1.81-3.13,1.81-.11,1.81,1.04Z"/><path class="cls-32" d="M186.78,381.31c-1.31.76-2.38.14-2.38-1.37s1.07-3.36,2.38-4.12c1.31-.76,2.38-.14,2.38,1.37s-1.07,3.36-2.38,4.12ZM186.78,377.14c-.68.39-1.24,1.36-1.24,2.15s.56,1.11,1.24.72c.68-.39,1.24-1.36,1.24-2.15s-.56-1.11-1.24-.72Z"/><path class="cls-32" d="M203.61,359.72c0,1.15-.81,2.56-1.81,3.13-1,.58-1.81.11-1.81-1.04s.81-2.56,1.81-3.13c1-.58,1.81-.11,1.81,1.04Z"/><path class="cls-32" d="M201.8,363.51c-1.31.76-2.38.14-2.38-1.37s1.07-3.36,2.38-4.12,2.38-.14,2.38,1.37-1.07,3.36-2.38,4.12ZM201.8,359.34c-.68.39-1.24,1.36-1.24,2.15s.56,1.11,1.24.72c.68-.39,1.24-1.36,1.24-2.15s-.56-1.11-1.24-.72Z"/><path class="cls-32" d="M218.89,355.96c0,1.15-.81,2.56-1.81,3.13-1,.58-1.81.11-1.81-1.04s.81-2.56,1.81-3.13c1-.58,1.81-.11,1.81,1.04Z"/><path class="cls-32" d="M217.08,359.75c-1.31.76-2.38.14-2.38-1.37s1.07-3.36,2.38-4.12,2.38-.14,2.38,1.37-1.07,3.36-2.38,4.12ZM217.08,355.58c-.68.39-1.24,1.36-1.24,2.15s.56,1.11,1.24.72c.68-.39,1.24-1.36,1.24-2.15s-.56-1.11-1.24-.72Z"/><path class="cls-32" d="M233.17,335.86c0,1.15-.81,2.56-1.81,3.13-1,.58-1.81.11-1.81-1.04s.81-2.56,1.81-3.13c1-.58,1.81-.11,1.81,1.04Z"/><path class="cls-32" d="M231.36,339.65c-1.31.76-2.38.14-2.38-1.37s1.07-3.36,2.38-4.12c1.31-.76,2.38-.14,2.38,1.37s-1.07,3.36-2.38,4.12ZM231.36,335.48c-.68.39-1.24,1.36-1.24,2.15s.56,1.11,1.24.72c.68-.39,1.24-1.36,1.24-2.15s-.56-1.11-1.24-.71Z"/><path class="cls-32" d="M248.08,320.3c0,1.15-.81,2.56-1.81,3.13-1,.58-1.81.11-1.81-1.04s.81-2.56,1.81-3.13c1-.58,1.81-.11,1.81,1.04Z"/><path class="cls-32" d="M246.27,324.09c-1.31.76-2.38.14-2.38-1.37s1.07-3.36,2.38-4.12c1.31-.76,2.38-.14,2.38,1.37s-1.07,3.36-2.38,4.12ZM246.27,319.91c-.68.39-1.24,1.36-1.24,2.15s.56,1.11,1.24.72c.68-.39,1.24-1.36,1.24-2.15s-.56-1.11-1.24-.72Z"/><polygon class="cls-42" points="101.37 432.66 86.67 433.68 74.16 444.95 73.85 443.86 86.75 432.23 101.46 431.22 115.7 418.64 131.06 412.55 146.43 390.03 160.36 372.73 175.38 372.73 190.12 379.63 204.54 362.68 219.97 358.7 233.85 338.83 249.09 322.8 261.16 313.65 261.34 314.84 249.33 323.95 234.35 339.73 220.2 360 204.67 364.01 189.94 381.32 174.67 374.17 160.4 374.2 147.03 390.8 131.37 413.76 115.76 419.95 101.37 432.66"/><path class="cls-42" d="M88.12,432.03c0,1.15-.81,2.56-1.81,3.13-1,.58-1.81.11-1.81-1.04s.81-2.56,1.81-3.13c1-.58,1.81-.11,1.81,1.04Z"/><path class="cls-42" d="M86.31,435.81c-1.31.76-2.38.14-2.38-1.37s1.07-3.36,2.38-4.12c1.31-.76,2.38-.14,2.38,1.37s-1.07,3.36-2.38,4.12ZM86.31,431.64c-.68.39-1.24,1.36-1.24,2.15s.56,1.11,1.24.72c.68-.39,1.24-1.36,1.24-2.15s-.56-1.11-1.24-.72Z"/><path class="cls-42" d="M103.08,430.81c0,1.15-.81,2.56-1.81,3.13-1,.58-1.81.11-1.81-1.04s.81-2.56,1.81-3.13,1.81-.11,1.81,1.04Z"/><path class="cls-42" d="M101.27,434.6c-1.31.76-2.38.14-2.38-1.37s1.07-3.36,2.38-4.12c1.31-.76,2.38-.14,2.38,1.37s-1.07,3.36-2.38,4.12ZM101.27,430.43c-.68.39-1.24,1.36-1.24,2.15s.56,1.11,1.24.72c.68-.39,1.24-1.36,1.24-2.15s-.56-1.11-1.24-.71Z"/><path class="cls-42" d="M117.99,417.82c0,1.15-.81,2.56-1.81,3.13-1,.58-1.81.11-1.81-1.04s.81-2.56,1.81-3.13c1-.58,1.81-.11,1.81,1.04Z"/><path class="cls-42" d="M116.19,421.61c-1.31.76-2.38.14-2.38-1.37s1.07-3.36,2.38-4.12,2.38-.14,2.38,1.37-1.07,3.36-2.38,4.12ZM116.19,417.43c-.68.39-1.24,1.36-1.24,2.15s.56,1.11,1.24.72c.68-.39,1.24-1.36,1.24-2.15s-.56-1.11-1.24-.71Z"/><path class="cls-42" d="M132.87,412.03c0,1.15-.81,2.56-1.81,3.13-1,.58-1.81.11-1.81-1.04s.81-2.56,1.81-3.13c1-.58,1.81-.11,1.81,1.04Z"/><path class="cls-42" d="M131.06,415.82c-1.31.76-2.38.14-2.38-1.37s1.07-3.36,2.38-4.12,2.38-.14,2.38,1.37-1.07,3.36-2.38,4.12ZM131.06,411.64c-.68.39-1.24,1.36-1.24,2.15s.56,1.11,1.24.71c.68-.39,1.24-1.36,1.24-2.15s-.56-1.11-1.24-.72Z"/><path class="cls-42" d="M148.07,389.83c0,1.15-.81,2.56-1.81,3.13-1,.58-1.81.11-1.81-1.04s.81-2.56,1.81-3.13c1-.58,1.81-.11,1.81,1.04Z"/><path class="cls-42" d="M146.26,393.62c-1.31.76-2.38.14-2.38-1.37s1.07-3.36,2.38-4.12,2.38-.14,2.38,1.37-1.07,3.36-2.38,4.12ZM146.26,389.44c-.68.39-1.24,1.36-1.24,2.15s.56,1.11,1.24.72c.68-.39,1.24-1.36,1.24-2.15s-.56-1.11-1.24-.72Z"/><path class="cls-42" d="M162.19,372.42c0,1.15-.81,2.56-1.81,3.13-1,.58-1.81.11-1.81-1.04s.81-2.56,1.81-3.13c1-.58,1.81-.11,1.81,1.04Z"/><path class="cls-42" d="M160.38,376.21c-1.31.76-2.38.14-2.38-1.37s1.07-3.36,2.38-4.12,2.38-.14,2.38,1.37-1.07,3.36-2.38,4.12ZM160.38,372.04c-.68.39-1.24,1.36-1.24,2.15s.56,1.11,1.24.71c.68-.39,1.24-1.36,1.24-2.15s-.56-1.11-1.24-.72Z"/><path class="cls-42" d="M177.11,371.87c0,1.15-.81,2.56-1.81,3.13s-1.81.11-1.81-1.04.81-2.56,1.81-3.13c1-.58,1.81-.11,1.81,1.04Z"/><path class="cls-42" d="M175.3,375.66c-1.31.76-2.38.14-2.38-1.37s1.07-3.36,2.38-4.12,2.38-.14,2.38,1.37-1.07,3.36-2.38,4.12ZM175.3,371.48c-.68.39-1.24,1.36-1.24,2.15s.56,1.11,1.24.72c.68-.39,1.24-1.36,1.24-2.15s-.56-1.11-1.24-.72Z"/><path class="cls-42" d="M191.54,379.78c0,1.15-.81,2.56-1.81,3.13-1,.58-1.81.11-1.81-1.04s.81-2.56,1.81-3.13,1.81-.11,1.81,1.04Z"/><path class="cls-42" d="M189.73,383.57c-1.31.76-2.38.14-2.38-1.37s1.07-3.36,2.38-4.12c1.31-.76,2.38-.14,2.38,1.37s-1.07,3.36-2.38,4.12ZM189.73,379.4c-.68.39-1.24,1.36-1.24,2.15s.56,1.11,1.24.72c.68-.39,1.24-1.36,1.24-2.15s-.56-1.11-1.24-.72Z"/><path class="cls-42" d="M206.57,361.98c0,1.15-.81,2.56-1.81,3.13-1,.58-1.81.11-1.81-1.04s.81-2.56,1.81-3.13c1-.58,1.81-.11,1.81,1.04Z"/><path class="cls-42" d="M204.76,365.77c-1.31.76-2.38.14-2.38-1.37s1.07-3.36,2.38-4.12,2.38-.14,2.38,1.37-1.07,3.36-2.38,4.12ZM204.76,361.59c-.68.39-1.24,1.36-1.24,2.15s.56,1.11,1.24.72c.68-.39,1.24-1.36,1.24-2.15s-.56-1.11-1.24-.72Z"/><path class="cls-42" d="M221.84,358.22c0,1.15-.81,2.56-1.81,3.13-1,.58-1.81.11-1.81-1.04s.81-2.56,1.81-3.13c1-.58,1.81-.11,1.81,1.04Z"/><path class="cls-42" d="M220.03,362.01c-1.31.76-2.38.14-2.38-1.37s1.07-3.36,2.38-4.12,2.38-.14,2.38,1.37-1.07,3.36-2.38,4.12ZM220.03,357.84c-.68.39-1.24,1.36-1.24,2.15s.56,1.11,1.24.72c.68-.39,1.24-1.36,1.24-2.15s-.56-1.11-1.24-.72Z"/><path class="cls-42" d="M236.13,338.12c0,1.15-.81,2.56-1.81,3.13-1,.58-1.81.11-1.81-1.04s.81-2.56,1.81-3.13,1.81-.11,1.81,1.04Z"/><path class="cls-42" d="M234.32,341.91c-1.31.76-2.38.14-2.38-1.37s1.07-3.36,2.38-4.12c1.31-.76,2.38-.14,2.38,1.37s-1.07,3.36-2.38,4.12ZM234.32,337.74c-.68.39-1.24,1.36-1.24,2.15s.56,1.11,1.24.72c.68-.39,1.24-1.36,1.24-2.15s-.56-1.11-1.24-.71Z"/><path class="cls-42" d="M251.03,322.56c0,1.15-.81,2.56-1.81,3.13-1,.58-1.81.11-1.81-1.04s.81-2.56,1.81-3.13c1-.58,1.81-.11,1.81,1.04Z"/><path class="cls-42" d="M249.22,326.35c-1.31.76-2.38.14-2.38-1.37s1.07-3.36,2.38-4.12c1.31-.76,2.38-.14,2.38,1.37s-1.07,3.36-2.38,4.12ZM249.22,322.17c-.68.39-1.24,1.36-1.24,2.15s.56,1.11,1.24.72c.68-.39,1.24-1.36,1.24-2.15s-.56-1.11-1.24-.72Z"/><polygon class="cls-27" points="74.34 527.24 73.56 527.69 73.56 480.23 74.34 479.78 74.34 527.24"/><polygon class="cls-27" points="73.95 477.95 72.46 481.32 75.44 479.6 73.95 477.95"/><polygon class="cls-27" points="73.6 528.13 73.6 527.23 241.46 430.32 241.46 431.22 73.6 528.13"/><polygon class="cls-27" points="243.24 429.74 241.06 429.28 241.06 432.72 243.24 429.74"/><polygon class="cls-47" points="93.41 515.75 84.73 520.76 84.73 489.53 93.41 484.53 93.41 515.75"/><polygon class="cls-27" points="93.41 515.75 84.73 520.76 84.73 504.76 93.41 499.75 93.41 515.75"/><polygon class="cls-47" points="107.83 507.42 99.15 512.43 99.15 481.21 107.83 476.2 107.83 507.42"/><polygon class="cls-27" points="107.83 507.42 99.15 512.43 99.15 490.96 107.83 485.95 107.83 507.42"/><polygon class="cls-47" points="122.25 499.1 113.57 504.1 113.57 472.88 122.25 467.87 122.25 499.1"/><polygon class="cls-27" points="122.25 499.1 113.57 504.1 113.57 494.46 122.25 489.45 122.25 499.1"/><polygon class="cls-47" points="136.67 490.77 128 495.78 128 464.56 136.67 459.55 136.67 490.77"/><polygon class="cls-27" points="136.67 490.77 128 495.78 128 471.68 136.67 466.67 136.67 490.77"/><polygon class="cls-47" points="151.09 482.44 142.42 487.45 142.42 456.23 151.09 451.22 151.09 482.44"/><polygon class="cls-27" points="151.09 482.44 142.42 487.45 142.42 469.59 151.09 464.59 151.09 482.44"/><polygon class="cls-47" points="165.51 474.12 156.84 479.13 156.84 447.9 165.51 442.9 165.51 474.12"/><polygon class="cls-27" points="165.51 474.12 156.84 479.13 156.84 448.12 165.51 443.12 165.51 474.12"/><polygon class="cls-47" points="179.93 465.79 171.26 470.8 171.26 439.58 179.93 434.57 179.93 465.79"/><polygon class="cls-27" points="179.93 465.79 171.26 470.8 171.26 451.63 179.93 446.62 179.93 465.79"/><polygon class="cls-47" points="194.35 457.47 185.68 462.47 185.68 431.25 194.35 426.24 194.35 457.47"/><polygon class="cls-27" points="194.35 457.47 185.68 462.47 185.68 452.83 194.35 447.83 194.35 457.47"/><polygon class="cls-47" points="208.77 449.14 200.1 454.15 200.1 422.93 208.77 417.92 208.77 449.14"/><polygon class="cls-27" points="208.77 449.14 200.1 454.15 200.1 449.11 208.77 444.1 208.77 449.14"/><polygon class="cls-47" points="223.19 440.81 214.52 445.82 214.52 414.6 223.19 409.59 223.19 440.81"/><polygon class="cls-27" points="223.19 440.81 214.52 445.82 214.52 429.83 223.19 424.82 223.19 440.81"/><path class="cls-27" d="M66.39,394.69l-.92.53v-5.14l.92-.53v5.14Z"/><path class="cls-27" d="M68.15,391.85v1.81l-.92.53v-5.14l1.74-1c.26-.15.5-.25.7-.28.21-.03.38-.02.53.05.14.07.25.19.33.35.08.16.11.37.11.61s-.04.5-.11.74c-.08.24-.19.48-.33.7-.14.22-.32.43-.53.63-.21.2-.44.37-.7.52l-.82.47ZM68.15,391l.82-.47c.13-.08.24-.16.34-.25.09-.09.17-.19.23-.29.06-.1.1-.21.13-.32.03-.11.04-.22.04-.33s-.01-.21-.04-.29c-.03-.09-.07-.15-.13-.19s-.14-.06-.23-.06c-.09,0-.21.05-.34.12l-.82.47v1.61Z"/><path class="cls-27" d="M73.58,389.18c0-.09-.01-.16-.03-.22-.02-.06-.07-.1-.13-.12-.06-.02-.15-.03-.27-.03-.11,0-.26.03-.44.07-.2.04-.4.07-.58.08-.18.01-.34,0-.47-.06-.14-.05-.24-.14-.32-.26-.08-.12-.12-.29-.12-.52s.04-.43.12-.66c.08-.22.19-.44.34-.65.15-.21.32-.41.52-.59.2-.19.42-.35.66-.49.25-.14.47-.23.67-.27.2-.04.37-.03.52.03.14.06.25.16.33.31.08.15.12.34.12.57l-.92.53c0-.11-.02-.2-.04-.27-.03-.08-.08-.13-.14-.16-.06-.03-.14-.04-.23-.02-.09.02-.2.06-.32.13-.12.07-.22.15-.31.23-.09.08-.16.17-.22.25-.06.09-.1.18-.13.27-.03.09-.04.18-.04.26,0,.17.08.27.22.3.15.03.37,0,.66-.06.24-.05.46-.08.64-.08.18,0,.34.03.46.09.12.06.22.16.28.29.06.13.1.3.1.51,0,.23-.04.45-.11.67-.08.22-.19.43-.33.63-.14.2-.31.39-.51.57-.2.18-.42.34-.66.48-.15.08-.29.15-.44.21-.15.06-.29.09-.42.11-.13.02-.26.01-.37-.01-.11-.03-.21-.08-.3-.15s-.15-.18-.2-.31c-.05-.13-.07-.29-.07-.49l.92-.53c0,.16.02.27.06.36.04.08.1.14.18.16.08.02.17.02.28-.01.11-.03.23-.09.36-.16.12-.07.22-.14.31-.22.09-.08.16-.16.22-.25.06-.09.1-.17.13-.26.03-.09.04-.17.04-.26Z"/><path class="cls-27" d="M78.49,382.56v3.39c0,.3-.04.58-.13.86-.09.28-.2.54-.35.78-.15.24-.33.46-.54.66-.21.2-.44.37-.68.51-.25.14-.48.24-.69.28-.21.04-.39.03-.54-.03-.15-.07-.27-.19-.35-.37-.08-.18-.13-.42-.13-.71v-3.39l.92-.53v3.39c0,.34.07.54.21.61.14.07.33.04.58-.1.25-.14.44-.33.58-.57.14-.23.21-.52.21-.85v-3.39l.92-.53Z"/><path class="cls-27" d="M80.44,381.43l1.14,3.07,1.14-4.38,1.2-.7v5.14l-.92.53v-1.41l.09-2.48-1.2,4.52-.63.36-1.2-3.13.09,2.37v1.41l-.92.53v-5.14l1.2-.69Z"/><path class="cls-47" d="M167.62,336.79l-.37.21v-5.14l.37-.21v5.14Z"/><path class="cls-47" d="M169.23,333.72v2.14l-.36.21v-5.14l1.53-.88c.47-.27.83-.34,1.08-.21.26.13.38.42.38.87s-.13.9-.38,1.32c-.26.42-.62.77-1.08,1.04l-1.17.67ZM169.23,333.36l1.17-.67c.37-.21.64-.48.83-.8.18-.32.28-.65.28-.97s-.09-.55-.28-.66c-.18-.11-.46-.06-.83.15l-1.17.67v2.28Z"/><path class="cls-47" d="M175.28,331.1c0-.28-.09-.46-.27-.53-.18-.07-.5-.05-.95.08-.49.14-.86.17-1.11.09-.25-.08-.38-.31-.38-.7s.14-.79.42-1.2c.28-.41.64-.74,1.08-.99.46-.27.83-.33,1.11-.2.28.13.42.41.41.84v.03s-.35.19-.35.19c0-.34-.1-.56-.32-.66-.21-.1-.5-.04-.86.16-.36.21-.64.46-.84.76-.2.3-.3.59-.3.86,0,.26.09.42.28.49.19.06.51.03.96-.1.48-.14.84-.16,1.09-.06.25.1.37.34.37.73s-.15.82-.44,1.23c-.29.41-.66.74-1.11,1-.44.26-.83.35-1.16.29-.33-.07-.49-.35-.48-.85v-.02s.34-.19.34-.19c0,.4.13.62.39.66.26.04.56-.04.91-.24.35-.2.64-.46.85-.76.22-.3.33-.6.33-.9Z"/><path class="cls-47" d="M179.61,324.72v3.48c0,.56-.15,1.07-.45,1.54-.3.47-.68.84-1.16,1.12-.47.27-.85.34-1.14.21-.29-.13-.44-.47-.44-1.03v-3.48l.37-.21v3.48c0,.44.11.71.34.82.22.11.52.06.88-.15.37-.21.67-.5.9-.87.23-.37.35-.78.35-1.21v-3.48l.36-.21Z"/><path class="cls-47" d="M181.18,323.81l1.64,3.58h.02s1.64-5.49,1.64-5.49l.48-.28v5.14l-.36.21v-2.27l.03-2.27h-.02s-1.65,5.48-1.65,5.48l-.25.15-1.65-3.55h-.02s.03,2.23.03,2.23v2.27l-.36.21v-5.14l.48-.28Z"/><path class="cls-47" d="M97.05,377.4v-5.14l1.29-.75c.54-.31.99-.36,1.35-.15.35.21.53.65.53,1.31v.66c0,.66-.18,1.3-.53,1.92-.35.62-.8,1.09-1.35,1.4l-1.29.75ZM97.42,372.4v4.42l.93-.54c.44-.25.8-.64,1.09-1.16.28-.52.43-1.05.43-1.59v-.67c0-.54-.14-.9-.43-1.09-.29-.19-.65-.16-1.09.09l-.93.54Z"/><path class="cls-47" d="M104.41,371c0,.66-.16,1.29-.47,1.88-.31.59-.74,1.04-1.27,1.35-.52.3-.94.34-1.25.11-.31-.23-.47-.68-.47-1.34v-.84c0-.66.16-1.29.46-1.88.31-.59.73-1.04,1.25-1.34.53-.31.95-.34,1.27-.11.32.23.47.67.47,1.34v.84ZM104.05,370.37c0-.56-.12-.93-.37-1.13s-.58-.17-1.01.08c-.42.24-.75.61-.99,1.08-.24.48-.35.99-.35,1.55v.85c0,.56.12.94.36,1.14.24.2.57.18.99-.06.43-.25.77-.61,1.01-1.09.24-.48.36-1,.36-1.56v-.85Z"/><path class="cls-47" d="M105.74,372.02l2.2-1.27v.36l-2.57,1.48v-5.14l.37-.21v4.78Z"/><path class="cls-47" d="M111.73,366.77c0,.66-.16,1.29-.47,1.88-.31.59-.74,1.04-1.27,1.35-.52.3-.94.34-1.25.11-.31-.23-.47-.68-.47-1.34v-.84c0-.66.16-1.29.46-1.88.31-.59.73-1.04,1.25-1.34.53-.31.95-.34,1.27-.11.32.23.47.67.47,1.34v.84ZM111.36,366.14c0-.56-.12-.93-.37-1.13s-.58-.17-1.01.08c-.42.24-.75.61-.99,1.08-.24.48-.35.99-.35,1.55v.85c0,.56.12.94.36,1.14s.57.18.99-.06c.43-.25.77-.61,1.01-1.09.24-.48.36-1,.36-1.56v-.85Z"/><path class="cls-47" d="M113.04,365.84v2.32l-.36.21v-5.14l1.51-.87c.48-.28.84-.37,1.1-.27.25.09.38.37.38.84,0,.27-.07.56-.21.85-.14.29-.33.56-.58.8.27-.08.47-.05.59.09.12.14.18.36.18.67v.48c0,.16.02.29.05.4.03.11.09.18.16.22v.08l-.37.22c-.08-.04-.13-.13-.16-.27-.03-.14-.05-.28-.05-.45v-.47c0-.32-.09-.51-.26-.59-.18-.08-.42-.03-.74.15l-1.25.72ZM113.04,365.48l1.1-.63c.4-.23.69-.49.88-.79.19-.29.28-.6.28-.92,0-.34-.09-.55-.28-.62-.18-.08-.46,0-.84.21l-1.14.66v2.09Z"/><path class="cls-47" d="M120.88,362.38c0-.28-.09-.46-.27-.53-.18-.07-.5-.05-.95.08-.49.14-.86.17-1.11.09-.25-.08-.38-.31-.38-.7s.14-.79.42-1.2c.28-.41.64-.74,1.08-.99.46-.27.83-.33,1.11-.2.28.13.42.41.41.84v.03s-.35.19-.35.19c0-.34-.11-.57-.32-.66-.21-.1-.5-.04-.86.16-.36.21-.64.46-.84.76-.2.3-.3.59-.3.86,0,.26.09.42.28.49.19.07.51.03.96-.1.48-.14.84-.16,1.09-.06.25.1.37.34.37.73s-.15.82-.44,1.23c-.29.41-.66.75-1.11,1.01-.44.26-.83.35-1.16.28-.33-.07-.49-.35-.48-.85v-.02s.34-.19.34-.19c0,.4.13.62.39.66.26.04.56-.04.91-.24.35-.2.64-.46.85-.76.22-.3.33-.6.33-.9Z"/><path class="cls-47" d="M122.54,362.68l-.37.21v-5.14l.37-.21v5.14Z"/><path class="cls-47" d="M126.69,355.51l-1.53.88v4.78l-.37.21v-4.78l-1.53.88v-.36l3.43-1.98v.36Z"/><path class="cls-47" d="M226.27,302.79v-5.14l1.29-.75c.54-.31.99-.36,1.35-.15.35.21.53.65.53,1.31v.66c0,.66-.18,1.3-.53,1.92-.35.62-.8,1.09-1.35,1.4l-1.29.75ZM226.64,297.8v4.42l.93-.54c.44-.25.8-.64,1.09-1.16.28-.52.43-1.05.43-1.59v-.67c0-.54-.14-.9-.43-1.09-.29-.19-.65-.16-1.09.09l-.93.54Z"/><path class="cls-47" d="M233.63,296.39c0,.66-.16,1.29-.47,1.88-.31.59-.74,1.04-1.27,1.35-.52.3-.94.34-1.25.11-.31-.23-.47-.68-.47-1.34v-.84c0-.66.16-1.29.46-1.88.31-.59.73-1.04,1.25-1.34.53-.31.95-.34,1.27-.11.32.23.47.67.47,1.34v.84ZM233.27,295.76c0-.56-.12-.93-.37-1.13s-.58-.17-1.01.08c-.42.24-.75.61-.99,1.08-.24.48-.35.99-.35,1.55v.85c0,.56.12.94.36,1.14s.57.18.99-.06c.43-.25.77-.61,1.01-1.09.24-.48.36-1,.36-1.56v-.85Z"/><path class="cls-47" d="M234.96,297.41l2.2-1.27v.36l-2.57,1.48v-5.14l.37-.21v4.78Z"/><path class="cls-47" d="M240.94,292.17c0,.66-.16,1.29-.47,1.88-.31.59-.74,1.04-1.27,1.35-.52.3-.94.34-1.25.11-.31-.23-.47-.68-.47-1.34v-.84c0-.66.16-1.29.46-1.88.31-.59.73-1.04,1.25-1.34.53-.31.95-.34,1.27-.11.32.23.47.67.47,1.34v.84ZM240.58,291.54c0-.56-.12-.93-.37-1.13s-.58-.17-1.01.08c-.42.24-.75.6-.99,1.08-.24.48-.35.99-.35,1.55v.85c0,.56.12.94.36,1.14.24.2.57.18.99-.06.43-.25.77-.61,1.01-1.09.24-.48.36-1,.36-1.56v-.85Z"/><path class="cls-47" d="M242.26,291.24v2.32l-.36.21v-5.14l1.51-.87c.48-.28.84-.37,1.1-.27.25.09.38.37.38.84,0,.27-.07.56-.21.85-.14.29-.33.56-.58.8.27-.08.47-.05.59.09.12.14.18.36.18.67v.48c0,.16.02.29.05.4.03.11.09.18.16.22v.08l-.37.22c-.08-.04-.13-.13-.16-.27-.03-.14-.05-.28-.05-.45v-.47c0-.32-.09-.51-.26-.59-.18-.08-.42-.03-.74.15l-1.25.72ZM242.26,290.88l1.1-.63c.4-.23.69-.49.88-.79.19-.29.28-.6.28-.92,0-.34-.09-.55-.28-.62-.18-.08-.46,0-.84.21l-1.14.66v2.09Z"/><path class="cls-47" d="M250.1,287.77c0-.28-.09-.46-.27-.53-.18-.07-.5-.05-.95.08-.49.14-.86.17-1.11.09-.25-.08-.38-.31-.38-.7s.14-.79.42-1.2.64-.74,1.08-.99c.46-.27.83-.33,1.11-.2.28.13.42.41.41.84v.03s-.35.19-.35.19c0-.34-.11-.57-.32-.66-.21-.1-.5-.04-.86.16-.36.21-.64.46-.84.76-.2.3-.3.59-.3.86,0,.26.09.42.28.49.19.07.51.03.96-.1.48-.14.84-.15,1.09-.06.25.1.37.34.37.73s-.15.82-.44,1.23c-.29.41-.66.75-1.11,1.01-.44.26-.83.35-1.16.28-.33-.07-.49-.35-.48-.85v-.02s.34-.19.34-.19c0,.4.13.62.39.66.26.04.56-.04.91-.24.35-.2.64-.46.85-.76.22-.3.33-.6.33-.9Z"/><path class="cls-47" d="M251.76,288.07l-.37.21v-5.14l.37-.21v5.14Z"/><path class="cls-47" d="M255.9,280.9l-1.53.88v4.78l-.37.21v-4.78l-1.53.88v-.36l3.43-1.98v.36Z"/><path class="cls-47" d="M141.67,350.53l-2.04,1.18-.46,1.7-.38.22,1.69-6.12.35-.2,1.68,4.17-.38.22-.46-1.17ZM139.75,351.26l1.8-1.04-.89-2.27h-.02s-.89,3.31-.89,3.31Z"/><path class="cls-47" d="M143.67,345.67l1.64,3.58h.02s1.64-5.48,1.64-5.48l.48-.28v5.14l-.36.21v-2.27l.03-2.27h-.02s-1.65,5.48-1.65,5.48l-.25.15-1.65-3.55h-.02s.03,2.23.03,2.23v2.27l-.36.21v-5.14l.48-.28Z"/><path class="cls-47" d="M151.12,344.02l-2.14,1.24v2.13l2.46-1.42v.36l-2.82,1.63v-5.14l2.8-1.62v.36l-2.44,1.41v1.93l2.14-1.24v.36Z"/><path class="cls-47" d="M155.27,339.33l-1.53.88v4.78l-.37.21v-4.78l-1.53.88v-.36l3.43-1.98v.36Z"/><path class="cls-47" d="M201.25,316.13l-2.04,1.18-.46,1.7-.38.22,1.69-6.12.35-.2,1.68,4.17-.38.22-.46-1.17ZM199.33,316.86l1.8-1.04-.89-2.27h-.02s-.89,3.31-.89,3.31Z"/><path class="cls-47" d="M203.25,311.27l1.64,3.58h.02s1.64-5.48,1.64-5.48l.48-.28v5.14l-.36.21v-2.27l.03-2.27h-.02s-1.65,5.48-1.65,5.48l-.25.15-1.65-3.55h-.02s.03,2.23.03,2.23v2.27l-.36.21v-5.14l.48-.28Z"/><path class="cls-47" d="M210.7,309.62l-2.14,1.24v2.13l2.46-1.42v.36l-2.82,1.63v-5.14l2.8-1.62v.36l-2.44,1.41v1.93l2.14-1.24v.36Z"/><path class="cls-47" d="M214.85,304.93l-1.53.88v4.78l-.37.21v-4.78l-1.53.88v-.36l3.43-1.98v.36Z"/><polygon class="cls-27" points="84.23 389.48 64.88 400.65 64.88 399.34 84.23 388.16 84.23 389.48"/><path class="cls-27" d="M84.69,476.42l-.27.16v-3.77l.27-.16v3.77Z"/><path class="cls-27" d="M85.88,474.17v1.57l-.27.15v-3.77l1.12-.65c.34-.2.61-.25.8-.16.19.09.28.31.28.64s-.09.66-.28.96c-.19.31-.45.56-.8.76l-.86.49ZM85.88,473.9l.86-.49c.27-.16.47-.35.61-.59.14-.24.2-.47.2-.71s-.07-.4-.2-.48-.34-.05-.61.11l-.86.49v1.68Z"/><path class="cls-27" d="M90.32,472.24c0-.2-.07-.33-.2-.39-.13-.05-.36-.03-.69.06-.36.1-.63.12-.81.07-.18-.06-.28-.23-.28-.51s.1-.58.31-.88.47-.54.79-.73c.34-.19.61-.24.81-.15s.31.3.3.62v.02s-.25.14-.25.14c0-.25-.08-.41-.23-.49-.15-.07-.36-.03-.63.12-.26.15-.47.34-.61.56s-.22.43-.22.63c0,.19.07.31.2.36.14.05.37.02.7-.07.35-.1.62-.11.8-.04.18.07.27.25.27.54s-.11.6-.32.9c-.21.3-.48.55-.82.74-.33.19-.61.26-.85.21-.24-.05-.36-.26-.35-.62v-.02s.25-.14.25-.14c0,.29.1.45.28.49.19.03.41-.03.67-.18.26-.15.47-.34.63-.56.16-.22.24-.44.24-.66Z"/><path class="cls-27" d="M93.49,467.56v2.56c0,.41-.11.79-.33,1.13-.22.34-.5.62-.85.82-.35.2-.63.25-.84.16-.21-.1-.32-.35-.32-.76v-2.56l.27-.16v2.55c0,.32.08.52.25.6.16.08.38.04.64-.11.27-.16.49-.37.66-.64.17-.27.25-.57.25-.89v-2.55l.27-.15Z"/><path class="cls-27" d="M94.64,466.9l1.2,2.63h.01s1.2-4.02,1.2-4.02l.35-.2v3.77l-.27.15v-1.66l.02-1.66h-.01s-1.21,4.02-1.21,4.02l-.19.11-1.21-2.6h-.01s.02,1.63.02,1.63v1.66l-.27.15v-3.77l.35-.2Z"/><path class="cls-27" d="M159.22,433.72l-.27.16v-3.77l.27-.16v3.77Z"/><path class="cls-27" d="M160.4,431.47v1.57l-.27.15v-3.77l1.12-.65c.34-.2.61-.25.8-.16.19.09.28.31.28.64s-.09.66-.28.96c-.19.31-.45.56-.8.76l-.86.49ZM160.4,431.21l.86-.49c.27-.16.47-.35.61-.59.14-.24.2-.47.2-.71s-.07-.4-.2-.49c-.13-.08-.34-.05-.61.11l-.86.49v1.68Z"/><path class="cls-27" d="M164.85,429.55c0-.2-.07-.33-.2-.39-.13-.05-.36-.03-.69.06-.36.1-.63.12-.81.06-.18-.06-.28-.23-.28-.51s.1-.58.31-.88c.21-.3.47-.54.79-.73.34-.19.61-.24.81-.15.21.1.31.3.3.62v.02s-.25.14-.25.14c0-.25-.08-.41-.23-.49-.15-.07-.36-.03-.63.12-.26.15-.47.34-.61.56-.15.22-.22.43-.22.63,0,.19.07.31.2.36.14.05.37.02.7-.07.35-.1.62-.11.8-.04s.27.25.27.54-.11.6-.32.9c-.21.3-.48.55-.82.74-.33.19-.61.26-.85.21-.24-.05-.36-.26-.35-.62v-.02s.25-.14.25-.14c0,.29.09.45.28.49.19.03.41-.03.67-.18.26-.15.47-.34.63-.56.16-.22.24-.44.24-.66Z"/><path class="cls-27" d="M168.02,424.87v2.56c0,.41-.11.79-.33,1.13-.22.34-.5.62-.85.82-.35.2-.63.25-.84.16-.21-.1-.32-.35-.32-.76v-2.56l.27-.16v2.55c0,.32.08.52.25.6.16.08.38.04.64-.11.27-.16.49-.37.66-.64.17-.27.25-.57.25-.89v-2.55l.27-.15Z"/><path class="cls-27" d="M169.17,424.21l1.2,2.63h.01s1.2-4.02,1.2-4.02l.35-.2v3.77l-.27.15v-1.66l.02-1.66h-.01s-1.21,4.02-1.21,4.02l-.19.11-1.21-2.61h-.01s.02,1.63.02,1.63v1.66l-.27.15v-3.77l.35-.2Z"/><path class="cls-27" d="M107.47,463.51v-3.77l.95-.55c.4-.23.73-.27.99-.11.26.16.39.48.39.96v.48c0,.48-.13.95-.39,1.41-.26.46-.59.8-.99,1.03l-.95.55ZM107.73,459.85v3.24l.68-.39c.32-.19.59-.47.8-.85.21-.38.31-.77.31-1.17v-.49c0-.39-.1-.66-.31-.8-.21-.14-.48-.12-.8.07l-.68.39Z"/><path class="cls-27" d="M112.86,458.81c0,.49-.12.95-.35,1.38-.23.43-.54.76-.93.99-.38.22-.69.25-.92.08s-.34-.5-.34-.98v-.61c0-.48.11-.94.34-1.38.23-.43.53-.76.91-.98.39-.22.7-.25.93-.08.23.17.35.5.35.98v.61ZM112.6,458.35c0-.41-.09-.68-.27-.83-.18-.15-.43-.13-.74.06-.31.18-.55.44-.73.79-.17.35-.26.73-.26,1.14v.62c0,.41.09.69.26.84s.42.13.73-.05c.32-.18.57-.45.74-.8.18-.35.27-.73.27-1.15v-.62Z"/><path class="cls-27" d="M113.84,459.56l1.61-.93v.26l-1.88,1.09v-3.77l.27-.16v3.51Z"/><path class="cls-27" d="M118.23,455.72c0,.49-.12.95-.35,1.38-.23.43-.54.76-.93.99-.38.22-.69.25-.92.08-.23-.17-.34-.5-.34-.98v-.61c0-.48.11-.94.34-1.38.23-.43.53-.76.91-.98.39-.22.7-.25.93-.08.23.17.35.5.35.98v.61ZM117.96,455.26c0-.41-.09-.68-.27-.83-.18-.15-.43-.13-.74.06-.31.18-.55.44-.73.79s-.26.73-.26,1.14v.62c0,.41.09.69.26.84.17.15.42.13.73-.05.32-.18.57-.45.74-.8.18-.35.27-.73.27-1.15v-.62Z"/><path class="cls-27" d="M119.19,455.03v1.7l-.27.15v-3.77l1.11-.64c.35-.2.62-.27.8-.2.19.07.28.27.28.61,0,.2-.05.41-.15.62-.1.22-.24.41-.42.59.2-.06.35-.04.44.06s.13.26.13.49v.35c0,.12.01.22.04.3.02.08.06.13.12.16v.06l-.27.16c-.06-.03-.09-.09-.12-.19-.02-.1-.03-.21-.03-.33v-.34c0-.23-.06-.38-.19-.44-.13-.06-.31-.02-.54.11l-.91.53ZM119.19,454.77l.81-.46c.29-.17.51-.36.65-.58.14-.22.2-.44.2-.67,0-.25-.07-.4-.2-.46-.14-.06-.34,0-.61.15l-.84.48v1.54Z"/><path class="cls-27" d="M124.94,452.49c0-.2-.07-.33-.2-.39-.13-.05-.36-.03-.69.06-.36.1-.63.12-.81.07-.18-.06-.28-.23-.28-.51s.1-.58.31-.88c.21-.3.47-.54.79-.73.34-.19.61-.24.81-.15s.31.3.3.62v.02s-.25.14-.25.14c0-.25-.08-.41-.23-.49-.15-.07-.36-.03-.63.12-.26.15-.47.34-.61.56-.15.22-.22.43-.22.63,0,.19.07.31.2.36.14.05.37.02.7-.07.35-.1.62-.11.8-.04s.27.25.27.54-.11.6-.32.9c-.21.3-.48.55-.81.74-.33.19-.61.26-.85.21-.24-.05-.36-.26-.35-.62v-.02s.25-.14.25-.14c0,.29.1.45.28.49.19.03.41-.03.67-.18.26-.15.47-.34.63-.56.16-.22.24-.44.24-.66Z"/><path class="cls-27" d="M126.16,452.71l-.27.16v-3.77l.27-.16v3.77Z"/><path class="cls-27" d="M129.2,447.45l-1.12.65v3.51l-.27.16v-3.51l-1.12.65v-.26l2.52-1.45v.26Z"/><path class="cls-27" d="M202.24,408.79v-3.77l.95-.55c.4-.23.73-.27.99-.11.26.16.39.48.39.96v.48c0,.48-.13.95-.39,1.41-.26.46-.59.8-.99,1.03l-.95.55ZM202.51,405.13v3.24l.68-.39c.32-.19.59-.47.8-.85.21-.38.31-.77.31-1.17v-.49c0-.39-.1-.66-.31-.8-.21-.14-.47-.12-.8.07l-.68.39Z"/><path class="cls-27" d="M207.64,404.09c0,.49-.12.95-.35,1.38-.23.43-.54.76-.93.99-.38.22-.69.25-.92.08s-.34-.5-.34-.98v-.61c0-.48.11-.94.34-1.38s.53-.76.91-.98c.39-.22.7-.25.93-.08.23.17.35.5.35.98v.61ZM207.38,403.63c0-.41-.09-.68-.27-.83-.18-.15-.43-.13-.74.06-.31.18-.55.44-.73.79s-.26.73-.26,1.14v.62c0,.41.09.69.26.84.17.15.42.13.73-.05.32-.18.57-.45.74-.8.18-.35.27-.73.27-1.15v-.62Z"/><path class="cls-27" d="M208.62,404.84l1.61-.93v.26l-1.88,1.09v-3.77l.27-.16v3.51Z"/><path class="cls-27" d="M213.01,401c0,.49-.12.95-.35,1.38-.23.43-.54.76-.93.99-.38.22-.69.25-.92.08-.23-.17-.34-.5-.34-.98v-.61c0-.48.11-.94.34-1.38.23-.43.53-.76.91-.98.39-.22.7-.25.93-.08.23.17.35.49.35.98v.61ZM212.74,400.53c0-.41-.09-.68-.27-.83-.18-.15-.43-.13-.74.06-.31.18-.55.44-.73.79-.17.35-.26.73-.26,1.14v.62c0,.41.09.69.26.84s.42.13.73-.05c.32-.18.57-.45.74-.8.18-.35.27-.73.27-1.15v-.62Z"/><path class="cls-27" d="M213.97,400.31v1.7l-.27.15v-3.77l1.11-.64c.35-.2.62-.27.8-.2s.28.27.28.61c0,.2-.05.41-.15.62-.1.22-.24.41-.42.59.2-.06.35-.04.44.06s.13.26.13.49v.35c0,.12.01.22.04.3.02.08.06.13.12.16v.06l-.27.16c-.06-.03-.09-.09-.12-.19-.02-.1-.03-.21-.03-.33v-.34c0-.23-.06-.38-.19-.44-.13-.06-.31-.02-.54.11l-.92.53ZM213.97,400.05l.81-.46c.29-.17.51-.36.65-.58.14-.22.2-.44.2-.67,0-.25-.07-.4-.2-.46-.14-.06-.34,0-.61.15l-.84.48v1.54Z"/><path class="cls-27" d="M219.72,397.77c0-.2-.07-.33-.2-.39-.13-.05-.36-.03-.69.06-.36.1-.63.12-.81.06-.18-.06-.28-.23-.28-.51s.1-.58.31-.88.47-.54.79-.73c.34-.19.61-.24.81-.15.21.1.31.3.3.62v.02s-.25.14-.25.14c0-.25-.08-.41-.23-.49-.15-.07-.36-.03-.63.12-.26.15-.47.34-.61.56-.15.22-.22.43-.22.63,0,.19.07.31.2.36.14.05.37.02.7-.07.35-.1.62-.11.8-.04.18.07.27.25.27.54s-.11.6-.32.9c-.21.3-.48.55-.82.74-.33.19-.61.26-.85.21-.24-.05-.36-.26-.35-.62v-.02s.25-.14.25-.14c0,.29.1.45.28.49.19.03.41-.03.67-.18.26-.15.47-.34.63-.56.16-.22.24-.44.24-.66Z"/><path class="cls-27" d="M220.94,397.99l-.27.16v-3.77l.27-.16v3.77Z"/><path class="cls-27" d="M223.98,392.73l-1.12.65v3.51l-.27.16v-3.51l-1.12.65v-.26l2.52-1.45v.26Z"/><path class="cls-27" d="M140.19,443.81l-1.5.86-.34,1.25-.28.16,1.24-4.49.25-.15,1.23,3.06-.28.16-.34-.86ZM138.78,444.34l1.32-.76-.65-1.67h-.01s-.65,2.43-.65,2.43Z"/><path class="cls-27" d="M141.66,440.24l1.2,2.63h.01s1.2-4.02,1.2-4.02l.35-.2v3.77l-.27.15v-1.66l.02-1.66h-.01s-1.21,4.02-1.21,4.02l-.19.11-1.21-2.6h-.01s.02,1.63.02,1.63v1.66l-.27.15v-3.77l.35-.2Z"/><path class="cls-27" d="M147.12,439.03l-1.57.91v1.56l1.8-1.04v.26l-2.07,1.19v-3.77l2.06-1.19v.26l-1.79,1.03v1.42l1.57-.91v.26Z"/><path class="cls-27" d="M150.16,435.59l-1.12.65v3.51l-.27.16v-3.51l-1.12.65v-.26l2.52-1.45v.26Z"/><path class="cls-27" d="M183.89,418.57l-1.5.86-.34,1.25-.28.16,1.24-4.49.25-.15,1.23,3.06-.28.16-.34-.86ZM182.49,419.11l1.32-.76-.65-1.66h-.01s-.65,2.43-.65,2.43Z"/><path class="cls-27" d="M185.36,415.01l1.2,2.63h.01s1.2-4.02,1.2-4.02l.35-.2v3.77l-.27.15v-1.66l.02-1.66h-.01s-1.21,4.02-1.21,4.02l-.19.11-1.21-2.6h-.01s.02,1.63.02,1.63v1.66l-.27.15v-3.77l.35-.2Z"/><path class="cls-27" d="M190.83,413.8l-1.57.91v1.56l1.8-1.04v.26l-2.07,1.19v-3.77l2.06-1.19v.26l-1.79,1.03v1.42l1.57-.91v.26Z"/><path class="cls-27" d="M193.87,410.36l-1.12.65v3.51l-.27.16v-3.51l-1.12.65v-.26l2.52-1.45v.26Z"/><polygon class="cls-38" points="268.26 262.27 266.14 263.5 266.14 261.05 268.26 259.82 268.26 262.27"/><polygon class="cls-38" points="274.79 258.5 272.67 259.73 272.67 257.28 274.79 256.05 274.79 258.5"/><polygon class="cls-38" points="263.67 264.93 256.05 269.32 256.05 266.87 263.67 262.47 263.67 264.93"/><path class="cls-5" d="M46.01,386.16v167.49c0,1.39,1.5,2.26,2.71,1.56l231.54-133.68c1.74-1.01,2.81-2.86,2.81-4.87v-167.16c0-2-2.16-3.25-3.89-2.25L49.72,379.73c-2.3,1.33-3.71,3.78-3.71,6.43ZM47.53,386.16c0-2.11,1.13-4.07,2.95-5.12l229.46-132.48c.17-.1.35-.15.54-.15.52,0,1.08.41,1.08,1.08v167.16c0,1.47-.79,2.83-2.06,3.56l-231.54,133.68s-.09.04-.14.04c-.14,0-.29-.15-.29-.29v-167.49Z"/><path class="cls-30" d="M31.99,584.7h16.42v7.15l237.89-137.47,10.88-6.48,157.07,90.74v-3.11h16.86v12.9h-.02c.04,2.26-1.29,4.42-4.08,6.03l-243.83,140.77c-6.07,3.51-16.68,3.07-23.69-.98l-162.52-94.19c-3.07-1.78-4.96-5.05-4.97-8.6l-.02-6.77Z"/><path class="cls-46" d="M31.93,584.7l254.37-146.99,10.88-6.48,168.12,97.13c7.01,4.05,7.77,10.17,1.7,13.68l-243.83,140.77c-6.07,3.51-16.68,3.07-23.69-.98l-167.56-97.13Z"/><path class="cls-39" d="M129.1,541.01l114.75-66.25c2.02-1.17,1.77-3.21-.57-4.56l-6.57-3.93-122.08,70.48,6.57,3.93c2.34,1.35,5.87,1.5,7.9.33Z"/><path class="cls-54" d="M297.61,622.46l68.28-39.42c2.02-1.17,1.77-3.21-.57-4.56l-38.18-22.04c-2.34-1.35-5.87-1.5-7.9-.33l-68.28,39.42c-2.02,1.17-1.77,3.21.57,4.56l38.18,22.04c2.34,1.35,5.87,1.5,7.9.33Z"/><path class="cls-26" d="M365.83,581.3l-38.77-22.38c-2.17-1.26-5.7-1.26-7.88,0l-67.73,39.11c-.55.32-.95.68-1.23,1.07-1.06-1.21-.74-2.71,1.01-3.72l67.73-39.11c2.18-1.26,5.7-1.26,7.88,0l38.77,22.38c1.63.94,2.04,2.32,1.23,3.48-.26-.3-.58-.58-1.01-.83Z"/><path class="cls-29" d="M166.26,630.55l213.64-123.34c2.02-1.17,1.77-3.21-.57-4.56l-75.55-43.62c-2.34-1.35-5.87-1.5-7.9-.33l-213.64,123.34c-2.02,1.17-1.77,3.21.57,4.56l75.54,43.62c2.34,1.35,5.87,1.5,7.9.33Z"/><path class="cls-43" d="M295.61,463.41l-213.09,123.03c-2.17-1.26-2.17-3.29,0-4.55l213.09-123.03c2.17-1.26,5.7-1.26,7.88,0l76.13,43.95c2.17,1.26,2.17,3.29,0,4.55l-76.13-43.95c-2.17-1.26-5.7-1.26-7.88,0Z"/><polygon class="cls-40" points="209.08 529.28 306.66 472.94 306.64 471.17 298.78 468.4 201.21 522.97 201.21 524.73 209.08 529.28"/><polygon class="cls-40" points="321.54 499.72 337.29 490.63 337.28 488.85 329.41 486.08 313.66 493.41 313.66 495.17 321.54 499.72"/><polygon class="cls-40" points="131.2 609.61 309.72 506.54 309.71 504.77 301.85 502 123.33 603.31 123.32 605.07 131.2 609.61"/><polygon class="cls-40" points="173.75 602.73 352.6 499.47 352.59 497.7 344.73 494.92 165.88 596.42 165.87 598.18 173.75 602.73"/><polygon class="cls-40" points="146.51 618.45 161.61 609.74 161.58 607.99 153.73 605.19 138.65 612.17 138.64 613.91 146.51 618.45"/><polygon class="cls-40" points="353.48 516.65 367.92 508.31 367.91 506.54 360.06 503.76 345.61 510.33 345.6 512.1 353.48 516.65"/><polygon class="cls-40" points="332.43 528.8 346.87 520.46 346.86 518.69 338.99 515.91 324.57 522.48 324.55 524.25 332.43 528.8"/><polygon class="cls-40" points="209.27 599.9 323.75 533.81 323.73 532.02 315.87 529.26 201.4 593.6 201.4 595.35 209.27 599.9"/><polygon class="cls-40" points="154.83 560.6 198.15 535.59 198.13 533.82 190.27 531.05 146.96 554.3 146.95 556.06 154.83 560.6"/><polygon class="cls-40" points="100.57 591.93 143.89 566.92 143.88 565.15 136.01 562.37 92.7 585.62 92.69 587.38 100.57 591.93"/><polygon class="cls-40" points="161.83 627.3 199.02 605.82 199 604.05 191.14 601.28 153.97 620.99 153.95 622.75 161.83 627.3"/><polygon class="cls-40" points="178.41 555.56 186.3 558.35 186.3 560.11 115.88 600.77 108.01 596.22 108.02 594.46 178.41 555.56"/><polygon class="cls-40" points="189.42 549.22 189.44 547.45 313.88 477.36 321.74 480.15 321.75 481.91 197.3 553.77 189.42 549.22"/><polygon class="cls-44" points="209.08 527.51 306.66 471.18 298.78 466.63 201.21 522.96 209.08 527.51"/><polygon class="cls-44" points="321.54 497.95 337.29 488.86 329.41 484.31 313.66 493.41 321.54 497.95"/><polygon class="cls-44" points="131.2 607.84 309.72 504.77 301.85 500.23 123.32 603.3 131.2 607.84"/><polygon class="cls-44" points="173.75 600.96 352.6 497.7 344.73 493.15 165.87 596.41 173.75 600.96"/><polygon class="cls-44" points="146.51 616.69 161.61 607.97 153.73 603.42 138.64 612.14 146.51 616.69"/><polygon class="cls-44" points="353.48 514.88 367.92 506.54 360.04 501.99 345.6 510.33 353.48 514.88"/><polygon class="cls-44" points="332.43 527.03 346.87 518.69 338.99 514.15 324.55 522.48 332.43 527.03"/><polygon class="cls-44" points="209.27 598.13 323.75 532.04 315.87 527.49 201.4 593.59 209.27 598.13"/><polygon class="cls-44" points="154.83 558.84 198.15 533.83 190.27 529.28 146.95 554.29 154.83 558.84"/><polygon class="cls-44" points="100.57 590.16 143.89 565.15 136.01 560.6 92.69 585.61 100.57 590.16"/><polygon class="cls-44" points="161.83 625.53 199.02 604.05 191.14 599.51 153.95 620.98 161.83 625.53"/><polygon class="cls-44" points="178.43 553.8 186.3 558.35 115.88 599 108.01 594.46 178.43 553.8"/><polygon class="cls-44" points="189.42 547.45 313.88 475.6 321.75 480.14 197.3 552 189.42 547.45"/><polygon class="cls-34" points="149.02 661.69 159.89 668.01 159.89 662.52 149.02 656.2 149.02 661.69"/><polygon class="cls-52" points="150.89 657.28 150.89 660.94 159.89 666.18 159.89 668.01 149.02 661.69 149.02 656.2 150.89 657.28"/><polygon class="cls-34" points="165.98 671.17 176.85 677.49 176.85 672 165.98 665.68 165.98 671.17"/><polygon class="cls-52" points="167.86 666.76 167.86 670.42 176.85 675.66 176.85 677.49 165.98 671.17 165.98 665.68 167.86 666.76"/><path class="cls-34" d="M37.94,595.87c.77,1.33,2.64,2.41,4.18,2.41s2.16-1.08,1.39-2.41c-.77-1.33-2.64-2.41-4.18-2.41s-2.16,1.08-1.39,2.41Z"/><path class="cls-52" d="M39.12,593.48c-.34.44-.35,1.09.08,1.82.77,1.33,2.64,2.41,4.18,2.41.08,0,.14-.01.21-.02-.28.36-.77.59-1.47.59-1.54,0-3.41-1.08-4.18-2.41-.73-1.27-.19-2.29,1.18-2.39Z"/><path class="cls-28" d="M115.07,536.58l6.19,3.66c2.34,1.35,5.87,1.5,7.9.33l114.75-66.25c.7-.41,1.12-.92,1.28-1.47-.03.72-.45,1.4-1.34,1.92l-114.75,66.25c-2.02,1.17-5.56,1.02-7.9-.33l-6.54-3.86.41-.24Z"/><path class="cls-24" d="M43.6,369.82l241.89-139.65c3.74-2.16,7.07-2.01,9.21-.05-2.11-1.2-5.01-1.03-8.2.81L44.61,370.58c-6.4,3.7-11.64,12.77-11.64,20.16v193.37l-1.01.58v-194.71c0-7.39,5.24-16.47,11.64-20.16Z"/><path class="cls-29" d="M199.5,680.31c7.01,4.05,17.62,4.49,23.69.98l243.83-140.77c2.46-1.42,3.77-3.27,4.03-5.23.36,2.51-.95,4.97-4.03,6.74l-243.83,140.77c-6.07,3.51-16.68,3.07-23.69-.98l-167.56-97.13,1.31-.76,166.25,96.37Z"/><path class="cls-4" d="M704.27,750.07l-166.3-96.01c-4.98-2.87-4.35-7.9,1.39-11.21l341.96-200.13c5.75-3.32,14.45-3.68,19.42-.81l166.3,96.01c4.98,2.87,4.35,7.9-1.39,11.21l-341.96,200.13c-5.75,3.32-14.45,3.68-19.42.81Z"/><path class="cls-7" d="M982.19,509.82l-32.57-18.8c-.84-.48-.73-1.33.23-1.89h0c.97-.56,2.43-.62,3.27-.14l32.57,18.8c.84.48.73,1.33-.23,1.89h0c-.97.56-2.43.62-3.27.14Z"/><path class="cls-7" d="M648.27,702.95l-28.69-16.57c-.94-.54-.82-1.5.26-2.12l9.82-5.67c1.09-.63,2.74-.7,3.68-.15l28.69,16.57c.94.54.82,1.5-.26,2.12l-9.82,5.67c-1.09.63-2.74.7-3.68.15Z"/><path class="cls-10" d="M1065.65,545.68l-341.96,200.13c-5.75,3.32-14.45,3.68-19.42.81l-166.3-96.01c-1.54-.89-2.53-1.98-3.02-3.16-.91,2.42.05,4.9,3.02,6.61l166.3,96.01c4.98,2.87,13.68,2.51,19.42-.81l341.96-200.13c3.98-2.3,5.5-5.4,4.41-8.05-.62,1.64-2.09,3.26-4.41,4.61Z"/><path class="cls-6" d="M619.58,686.39l.05.03c.08-.06.12-.13.22-.18l9.82-5.67c1.09-.63,2.74-.7,3.68-.15l28.65,16.54c.84-.62.91-1.45.05-1.94l-28.69-16.57c-.94-.54-2.59-.48-3.68.15l-9.82,5.67c-1.09.63-1.21,1.58-.26,2.12Z"/><path class="cls-9" d="M949.5,490.9c.11-.1.2-.2.36-.29.97-.56,2.43-.62,3.27-.14l32.57,18.8c.06.03.07.08.12.11.58-.53.58-1.19-.12-1.59l-32.57-18.8c-.84-.48-2.3-.42-3.27.14-.9.52-1.02,1.28-.36,1.77Z"/><path class="cls-23" d="M704.27,750.08c1.12.63,2.41,1.12,3.83,1.44v16.43c-1.42-.33-2.71-.81-3.83-1.47l-166.3-96.01c-2.3-1.31-3.39-3.11-3.35-4.97h-.02v-16.52h.02c-.07,1.9,1.01,3.72,3.35,5.07l166.3,96.01Z"/><path class="cls-23" d="M1065.65,565.56l-341.96,200.13c-1.71.98-3.7,1.71-5.75,2.17v-16.43c2.06-.46,4.05-1.18,5.75-2.17l341.96-200.13c2.84-1.64,4.44-3.72,4.7-5.73v15.31c.26,2.34-1.31,4.88-4.7,6.85Z"/><path class="cls-4" d="M717.94,751.43v16.43c-3.28.72-6.83.77-9.84.09v-16.43c3.02.68,6.56.66,9.84-.09Z"/><polygon class="cls-7" points="750.57 729.36 571.44 625.7 856.72 460.99 1034.11 563.52 750.57 729.36"/><path class="cls-19" d="M856.64,459.4l-287.96,166.26,181.06,104.77,286.22-167.39-179.31-103.64ZM749.73,728.29l-177.36-102.63,284.27-164.12,175.61,101.5-282.52,165.25Z"/><polygon class="cls-8" points="840.32 656.73 694.59 572.59 763.59 532.75 909.33 616.89 840.32 656.73"/><path class="cls-8" d="M991.49,553.16l9.09,5.25c1.54.89,1.35,2.44-.43,3.47h0c-1.78,1.03-4.47,1.14-6.01.25l-9.09-5.25c-1.54-.89-1.35-2.44.43-3.47h0c1.78-1.03,4.47-1.14,6.01-.25Z"/><polygon class="cls-8" points="862.62 477.25 880.27 487.44 872.52 491.91 854.87 481.72 862.62 477.25"/><polygon class="cls-7" points="870.43 483.44 877.1 487.29 872.28 490.07 865.61 486.22 870.43 483.44"/><path class="cls-8" d="M964.11,544.77l-.89-.51c-1.58-.91-1.38-2.51.44-3.57h0c1.83-1.06,4.59-1.17,6.18-.26l.89.51c1.58.91,1.38,2.51-.44,3.57h0c-1.83,1.06-4.59,1.17-6.18.26Z"/><path class="cls-8" d="M975.12,551.13l-.89-.51c-1.58-.91-1.38-2.51.44-3.57h0c1.83-1.06,4.59-1.17,6.18-.26l.89.51c1.58.91,1.38,2.51-.44,3.57h0c-1.83,1.06-4.59,1.17-6.18.26Z"/><path class="cls-21" d="M657.21,662.54l-.71-.41c-1.27-.73-1.11-2.02.36-2.87h0c1.47-.85,3.69-.94,4.96-.21l.71.41c1.27.73,1.11,2.02-.36,2.87h0c-1.47.85-3.69.94-4.96.21Z"/><path class="cls-8" d="M671.23,670.63l-.71-.41c-1.27-.73-1.11-2.02.36-2.87h0c1.47-.85,3.69-.94,4.96-.21l.71.41c1.27.73,1.11,2.02-.36,2.87h0c-1.47.85-3.69.94-4.96.21Z"/><path class="cls-8" d="M685.25,678.72l-.71-.41c-1.27-.73-1.11-2.02.36-2.87h0c1.47-.85,3.69-.94,4.96-.21l.71.41c1.27.73,1.11,2.02-.36,2.87h0c-1.47.85-3.69.94-4.96.21Z"/><polygon class="cls-8" points="841.25 656.17 695.52 572.04 842.68 488.04 988.42 572.18 841.25 656.17"/><polygon class="cls-50" points="722.99 568.5 722.14 568.01 777.38 536.12 778.22 536.61 722.99 568.5"/><polygon class="cls-50" points="779.73 535.25 775.76 535.68 778.98 537.54 779.73 535.25"/><polygon class="cls-50" points="721.71 568.28 722.55 567.79 850.14 641.46 849.29 641.94 721.71 568.28"/><polygon class="cls-50" points="851.65 642.81 850.9 640.52 847.68 642.38 851.65 642.81"/><polygon class="cls-8" points="760.83 702.63 615.09 618.49 684.1 578.65 829.83 662.79 760.83 702.63"/><polygon class="cls-29" points="662.96 617.21 662.34 616.85 706.47 591.37 707.09 591.73 662.96 617.21"/><polygon class="cls-29" points="663.78 646.6 663.16 646.24 732.33 606.3 732.95 606.66 663.78 646.6"/><polygon class="cls-29" points="689.64 661.53 689.03 661.17 758.19 621.24 758.81 621.59 689.64 661.53"/><polygon class="cls-29" points="715.5 676.46 714.89 676.1 784.06 636.17 784.67 636.52 715.5 676.46"/><polygon class="cls-29" points="741.37 691.39 740.75 691.03 809.92 651.1 810.54 651.46 741.37 691.39"/><path class="cls-50" d="M631.82,609.18c0,13.67,21.76,2.31,32.02,8.24,11.24,6.49-1.23,11.55,8.62,17.24,9.85,5.69,47.67-12.65,59.58-5.78,9.75,5.63-13.64,15.17-2.92,20.35,7.54,3.64-4.77,11.64,1.08,15.02,5.85,3.38,19.24-.98,29.86-5.69,9.21-4.08,23.55-4.71,23.55.98,0,5.69-9.03,10.72-2.72,14.37,6.31,3.64,11.8,1.9,15.03,3.76s0,4.8,0,4.8l-35,20.2-145.83-84.2s16.72-9.78,16.73-9.3Z"/><polygon class="cls-29" points="637.71 631.78 637.09 631.43 638.02 630.89 638.63 631.25 637.71 631.78"/><path class="cls-29" d="M640.47,630.19l-.62-.36,1.83-1.06.62.36-1.83,1.06ZM644.13,628.08l-.62-.36,1.83-1.06.62.36-1.83,1.06ZM647.79,625.96l-.62-.36,1.83-1.06.62.36-1.83,1.06ZM651.45,623.85l-.62-.36,1.83-1.06.62.36-1.83,1.06ZM655.12,621.73l-.62-.36,1.83-1.06.62.36-1.83,1.06ZM658.78,619.62l-.62-.36,1.83-1.06.62.36-1.83,1.06Z"/><polygon class="cls-29" points="662.44 617.5 661.83 617.15 662.75 616.61 663.37 616.97 662.44 617.5"/><polygon class="cls-29" points="663.57 646.71 662.96 646.36 663.88 645.82 664.5 646.18 663.57 646.71"/><path class="cls-29" d="M666.33,645.12l-.62-.36,1.83-1.06.62.36-1.83,1.06ZM669.99,643.01l-.62-.36,1.83-1.06.62.36-1.83,1.06ZM673.65,640.89l-.62-.36,1.83-1.06.62.36-1.83,1.06ZM677.32,638.78l-.62-.36,1.83-1.06.62.36-1.83,1.06ZM680.98,636.66l-.62-.36,1.83-1.06.62.36-1.83,1.06ZM684.64,634.55l-.62-.36,1.83-1.06.62.36-1.83,1.06Z"/><polygon class="cls-29" points="688.31 632.43 687.69 632.08 688.61 631.55 689.23 631.9 688.31 632.43"/><polygon class="cls-29" points="689.44 661.65 688.82 661.29 689.74 660.76 690.36 661.11 689.44 661.65"/><path class="cls-29" d="M692.24,660.02l-.62-.36,1.88-1.09.62.36-1.88,1.09ZM696.01,657.85l-.62-.36,1.88-1.09.62.36-1.88,1.09ZM699.77,655.68l-.62-.36,1.88-1.09.62.36-1.88,1.09ZM703.54,653.5l-.62-.36,1.88-1.09.62.36-1.88,1.09ZM707.31,651.33l-.62-.36,1.88-1.09.62.36-1.88,1.09ZM711.07,649.15l-.62-.36,1.88-1.09.62.36-1.88,1.09ZM714.84,646.98l-.62-.36,1.88-1.09.62.36-1.88,1.09ZM718.6,644.81l-.62-.36,1.88-1.09.62.36-1.88,1.09ZM722.37,642.63l-.62-.36,1.88-1.09.62.36-1.88,1.09ZM726.14,640.46l-.62-.36,1.88-1.09.62.36-1.88,1.09ZM729.9,638.28l-.62-.36,1.88-1.09.62.36-1.88,1.09Z"/><polygon class="cls-29" points="733.67 636.11 733.05 635.75 733.98 635.22 734.59 635.57 733.67 636.11"/><polygon class="cls-29" points="715.3 676.58 714.68 676.22 715.61 675.69 716.22 676.04 715.3 676.58"/><path class="cls-29" d="M718.05,674.99l-.62-.36,1.83-1.06.62.36-1.83,1.06ZM721.72,672.87l-.62-.36,1.83-1.06.62.36-1.83,1.06ZM725.38,670.76l-.62-.36,1.83-1.06.62.36-1.83,1.06ZM729.04,668.64l-.62-.36,1.83-1.06.62.36-1.83,1.06ZM732.7,666.53l-.62-.36,1.83-1.06.62.36-1.83,1.06ZM736.37,664.41l-.62-.36,1.83-1.06.62.36-1.83,1.06Z"/><polygon class="cls-29" points="740.03 662.3 739.42 661.94 740.34 661.41 740.95 661.76 740.03 662.3"/><polygon class="cls-29" points="741.16 691.51 740.54 691.15 741.47 690.62 742.08 690.98 741.16 691.51"/><path class="cls-29" d="M743.93,689.91l-.62-.36,1.85-1.07.62.36-1.85,1.07ZM747.63,687.78l-.62-.36,1.85-1.07.62.36-1.85,1.07ZM751.32,685.64l-.62-.36,1.85-1.07.62.36-1.85,1.07ZM755.01,683.51l-.62-.36,1.85-1.07.62.36-1.85,1.07ZM758.71,681.38l-.62-.36,1.85-1.07.62.36-1.85,1.07ZM762.4,679.24l-.62-.36,1.85-1.07.62.36-1.85,1.07ZM766.1,677.11l-.62-.36,1.85-1.07.62.36-1.85,1.07ZM769.79,674.98l-.62-.36,1.85-1.07.62.36-1.85,1.07ZM773.49,672.84l-.62-.36,1.85-1.07.62.36-1.85,1.07ZM777.18,670.71l-.62-.36,1.85-1.07.62.36-1.85,1.07Z"/><polygon class="cls-29" points="780.88 668.58 780.26 668.22 781.18 667.69 781.8 668.05 780.88 668.58"/><path class="cls-51" d="M906.3,582.64c7.04-8.52,7.69-18.34,1.92-27.09l-55.73,12.27,53.81,14.83Z"/><path class="cls-49" d="M847.34,615.72c-12.27,0-24.41-2.13-35.12-5.83-20.56-7.1-34.3-20.13-37.72-35.59-2.78-12.57,1.47-25.12,11.97-35.25,13.44-12.97,36.27-20.74,61.05-20.74,12.29,0,24.46,1.95,35.19,5.66,8.78,3.03,16.35,7.13,22.51,12.19l19.65,16.16-49.42,16.55,45.55,20-23.45,14.18c-13.49,8.06-31.32,12.67-50.19,12.67h0Z"/><path class="cls-31" d="M896.26,547.03c-4.67-3.84-10.74-7.2-18.16-9.76-28.28-9.77-64.93-4.45-81.85,11.87-16.92,16.33-7.71,37.49,20.57,47.26,24.27,8.38,54.65,5.63,73.49-5.62l-53.95-23.69,59.9-20.06Z"/><polygon class="cls-31" points="896.26 547.03 896.26 532.85 870.61 532.85 870.61 548.59 896.26 547.03"/><rect class="cls-31" x="787.77" y="550.6" width="13.88" height="18.11"/><rect class="cls-51" x="889.03" y="517.1" width="23.08" height="51.96"/><polygon class="cls-31" points="890.31 576.6 890.31 590.78 863.77 590.78 863.77 575.55 890.31 576.6"/><path class="cls-50" d="M896.26,532.85c-4.67-3.84-10.74-7.2-18.16-9.76-28.28-9.77-64.93-4.46-81.85,11.87-16.92,16.33-7.71,37.49,20.57,47.26,24.27,8.38,54.65,5.63,73.49-5.62l-53.95-23.69,59.9-20.06Z"/><polygon class="cls-36" points="852.49 535.41 852.49 560.06 890.43 576.55 893.75 573.29 896.01 537.93 852.49 535.41"/><path class="cls-53" d="M817.12,580.56c-20.15-6.96-30.6-19.7-28.84-32.35-2.96,13.19,7.51,26.75,28.54,34.01,24.27,8.38,54.65,5.63,73.49-5.62l-1.51-.66c-18.93,10.39-48.16,12.75-71.68,4.63Z"/><path class="cls-53" d="M834.48,552.03l2.01.88,59.77-20.07c-.45-.37-.92-.73-1.4-1.09l-60.38,20.27Z"/><path class="cls-45" d="M906.3,531.6c7.04-8.52,7.69-18.34,1.92-27.09l-55.73,12.27,53.81,14.83Z"/><path class="cls-35" d="M906.3,582.64c-.03-.61,0-51.22,0-51.22l-53.81-14.83v43.46l37.79,16.6v1.51l16.03,4.48Z"/><path class="cls-42" d="M911.6,512.31c.84,6-1.02,12.09-5.6,17.63l-50.33-13.87-3.18.7,53.81,14.83c5-6.06,6.76-12.77,5.3-19.29Z"/><path class="cls-29" d="M325.59,315.96l-11.8-6.81,7.69-4.44,33.76,19.49-7.69,4.44-11.85-6.84-26.37,15.22-10.11-5.84,26.37-15.22Z"/><path class="cls-29" d="M360.58,327.28l29.89,17.25-7.69,4.44-19.77-11.42-4.62,2.67,15.73,9.08-7.39,4.27-15.73-9.08-6.67,3.85,20.22,11.68-7.69,4.44-30.34-17.51,34.06-19.66Z"/><path class="cls-29" d="M377.53,356.73c10.46-6.04,27.04-4.84,39.56,2.39,3.71,2.14,6.51,4.54,8.22,6.99l-8.61,4.97c-1.3-2.49-3.19-4.71-7.57-7.24-6.57-3.8-15.61-4.35-21.21-1.12-5.69,3.29-4.52,8.51,2.33,12.47,3.76,2.17,7.93,3.79,13.06,4.39l-8.66,5c-4.4-.96-9.05-2.75-12.93-4.99-12.47-7.2-14.66-16.83-4.2-22.87Z"/><path class="cls-29" d="M433.55,369.41l10.11,5.84-12.11,6.99,14.83,8.56,12.11-6.99,10.11,5.84-34.06,19.66-10.11-5.84,14.16-8.17-14.83-8.56-14.16,8.17-10.11-5.84,34.06-19.66Z"/><path class="cls-29" d="M476.13,393.99l8.65,4.99-1.54,20.74,18.73-10.81,9.89,5.71-34.06,19.66-8.37-4.83,1.41-20.93-18.83,10.87-9.94-5.74,34.06-19.66Z"/><path class="cls-29" d="M501.11,428.08c9.73-5.62,26.36-5.23,38.44,1.74,12.08,6.97,12.75,16.58,3.02,22.19-9.68,5.59-26.36,5.23-38.44-1.75-12.08-6.97-12.7-16.6-3.02-22.19ZM532.18,446.02c5.55-3.2,5.25-8.09-.7-11.53-5.95-3.44-14.42-3.61-19.97-.41-5.55,3.2-5.25,8.09.7,11.53,5.96,3.44,14.42,3.61,19.97.41Z"/><path class="cls-29" d="M565.89,445.82l10.11,5.84-26.37,15.23,18.88,10.9-7.69,4.44-28.99-16.74,34.06-19.66Z"/><path class="cls-29" d="M579.31,473.23c9.73-5.62,26.36-5.23,38.44,1.74,12.08,6.97,12.75,16.58,3.02,22.19-9.68,5.59-26.36,5.23-38.44-1.75-12.08-6.97-12.7-16.6-3.02-22.19ZM610.38,491.17c5.55-3.2,5.25-8.09-.7-11.53-5.95-3.44-14.42-3.61-19.97-.41-5.55,3.2-5.25,8.09.7,11.53,5.96,3.44,14.42,3.61,19.97.41Z"/><path class="cls-29" d="M625.82,500.08c10.46-6.04,27.04-4.84,39.51,2.36,5.39,3.11,7.35,5.42,9.03,8.02l-8.22,4.75c-2.03-3.31-4.61-5.64-8.15-7.68-7.14-4.12-16.03-4.76-21.91-1.36-6.23,3.6-4.67,8.6,1.23,12,2.25,1.3,4.89,2.37,7.84,2.67l11.14-6.43,10.17,5.87-15.13,8.74c-5.69-.09-14.5-2.14-21.8-6.35-11.97-6.91-14.15-16.54-3.69-22.58Z"/><path class="cls-29" d="M679.6,533.38l3.86-19.68,11.52,6.65-2.47,11.55,20.06-1.4,11.24,6.49-33.89,2.12-15.28,8.82-10.11-5.84,15.08-8.71Z"/><rect class="cls-29" x="531.35" y="409.3" width="78.15" height="4" transform="translate(-129.98 348.22) rotate(-30.65)"/><polygon class="cls-29" points="480.21 464.46 483.67 466.46 489.73 462.96 486.27 460.96 480.21 464.46"/><polygon class="cls-29" points="499.26 453.46 493.2 456.96 496.66 458.96 502.72 455.46 499.26 453.46"/><polygon class="cls-29" points="454.23 479.46 457.69 481.46 463.75 477.96 460.29 475.96 454.23 479.46"/><polygon class="cls-29" points="467.22 471.96 470.68 473.96 476.74 470.46 473.28 468.46 467.22 471.96"/><polygon class="cls-29" points="441.24 486.96 444.7 488.96 450.76 485.46 447.3 483.46 441.24 486.96"/><polygon class="cls-29" points="428.25 494.46 431.71 496.46 437.77 492.96 434.31 490.96 428.25 494.46"/><polygon class="cls-29" points="626.26 453.99 676.05 446.61 639.04 425.25 626.26 453.99"/></svg>