<?xml version="1.0" standalone="no"?><svg xmlns="http://www.w3.org/2000/svg" viewBox="0 0 1440 320"><path fill="#1f2034" fill-opacity="1" d="M0,288L24,272C48,256,96,224,144,208C192,192,240,192,288,197.3C336,203,384,213,432,208C480,203,528,181,576,165.3C624,149,672,139,720,154.7C768,171,816,213,864,240C912,267,960,277,1008,272C1056,267,1104,245,1152,213.3C1200,181,1248,139,1296,144C1344,149,1392,203,1416,229.3L1440,256L1440,320L1416,320C1392,320,1344,320,1296,320C1248,320,1200,320,1152,320C1104,320,1056,320,1008,320C960,320,912,320,864,320C816,320,768,320,720,320C672,320,624,320,576,320C528,320,480,320,432,320C384,320,336,320,288,320C240,320,192,320,144,320C96,320,48,320,24,320L0,320Z"></path></svg>