<?xml version="1.0" standalone="no"?><svg xmlns="http://www.w3.org/2000/svg" viewBox="0 0 1440 320"><path fill="#1f2034" fill-opacity="1" d="M0,288L24,272C48,256,96,224,144,208C192,192,240,192,288,197.3C336,203,384,213,432,208C480,203,528,181,576,165.3C624,149,672,139,720,154.7C768,171,816,213,864,240C912,267,960,277,1008,272C1056,267,1104,245,1152,213.3C1200,181,1248,139,1296,144C1344,149,1392,203,1416,229.3L1440,256L1440,0L1416,0C1392,0,1344,0,1296,0C1248,0,1200,0,1152,0C1104,0,1056,0,1008,0C960,0,912,0,864,0C816,0,768,0,720,0C672,0,624,0,576,0C528,0,480,0,432,0C384,0,336,0,288,0C240,0,192,0,144,0C96,0,48,0,24,0L0,0Z"></path></svg>